<?xml version="1.0" encoding="UTF-8" standalone="no"?>
<svg
   xmlns:dc="http://purl.org/dc/elements/1.1/"
   xmlns:cc="http://creativecommons.org/ns#"
   xmlns:rdf="http://www.w3.org/1999/02/22-rdf-syntax-ns#"
   xmlns:svg="http://www.w3.org/2000/svg"
   xmlns="http://www.w3.org/2000/svg"
   xmlns:xlink="http://www.w3.org/1999/xlink"
   xmlns:sodipodi="http://sodipodi.sourceforge.net/DTD/sodipodi-0.dtd"
   xmlns:inkscape="http://www.inkscape.org/namespaces/inkscape"
   width="210mm"
   height="297mm"
   viewBox="0 0 210 297"
   version="1.1"
   id="svg53289"
   inkscape:version="1.0.2 (e86c870879, 2021-01-15)"
   sodipodi:docname="work_packages_wo_activities_2.svg">
  <defs
     id="defs53283">
    <linearGradient
       id="XMLID_3_"
       gradientUnits="userSpaceOnUse"
       x1="-7854.5342"
       y1="-8001.5151"
       x2="-7819.292"
       y2="-8001.5151"
       gradientTransform="matrix(-1,0.0050054,-0.0050054,-1,-7573.2466,-7851.8403)">
      <stop
         offset="5.618000e-003"
         style="stop-color:#FEDC00"
         id="stop11728" />
      <stop
         offset="5.735702e-002"
         style="stop-color:#F8D10F"
         id="stop11730" />
      <stop
         offset="0.1534"
         style="stop-color:#EBB422"
         id="stop11732" />
      <stop
         offset="0.2833"
         style="stop-color:#D9892B"
         id="stop11734" />
      <stop
         offset="0.4402"
         style="stop-color:#C6522F"
         id="stop11736" />
      <stop
         offset="0.5225"
         style="stop-color:#BD2A2F"
         id="stop11738" />
      <stop
         offset="1"
         style="stop-color:#EB6537"
         id="stop11740" />
    </linearGradient>
    <linearGradient
       inkscape:collect="always"
       xlink:href="#XMLID_3_"
       id="linearGradient53741"
       gradientUnits="userSpaceOnUse"
       gradientTransform="matrix(-1,0.0050054,-0.0050054,-1,-7573.2466,-7851.8403)"
       x1="-7854.5342"
       y1="-8001.5151"
       x2="-7819.292"
       y2="-8001.5151" />
    <linearGradient
       inkscape:collect="always"
       xlink:href="#XMLID_3_"
       id="linearGradient53743"
       gradientUnits="userSpaceOnUse"
       gradientTransform="matrix(-1,0.0050054,-0.0050054,-1,-7573.2466,-7851.8403)"
       x1="-7854.5342"
       y1="-8001.5151"
       x2="-7819.292"
       y2="-8001.5151" />
    <linearGradient
       inkscape:collect="always"
       xlink:href="#XMLID_3_"
       id="linearGradient53745"
       gradientUnits="userSpaceOnUse"
       gradientTransform="matrix(-1,0.0050054,-0.0050054,-1,-7573.2466,-7851.8403)"
       x1="-7854.5342"
       y1="-8001.5151"
       x2="-7819.292"
       y2="-8001.5151" />
  </defs>
  <sodipodi:namedview
     id="base"
     pagecolor="#ffffff"
     bordercolor="#666666"
     borderopacity="1.0"
     inkscape:pageopacity="0.0"
     inkscape:pageshadow="2"
     inkscape:zoom="1.4"
     inkscape:cx="375.1283"
     inkscape:cy="283.72213"
     inkscape:document-units="mm"
     inkscape:current-layer="g51936"
     inkscape:document-rotation="0"
     showgrid="false"
     inkscape:window-width="2560"
     inkscape:window-height="1372"
     inkscape:window-x="1920"
     inkscape:window-y="0"
     inkscape:window-maximized="1" />
  <metadata
     id="metadata53286">
    <rdf:RDF>
      <cc:Work
         rdf:about="">
        <dc:format>image/svg+xml</dc:format>
        <dc:type
           rdf:resource="http://purl.org/dc/dcmitype/StillImage" />
        <dc:title></dc:title>
      </cc:Work>
    </rdf:RDF>
  </metadata>
  <g
     inkscape:label="Layer 1"
     inkscape:groupmode="layer"
     id="layer1">
    <g
       id="g51936"
       transform="translate(25.396935,6.561349)">
      <path
         id="XMLID_139_"
         class="st2"
         d="M 32.811085,26.751653 H 9.7912042 c -2.0727312,0 -3.7686018,-2.063226 -3.7686018,-4.584948 v -8.214699 c 0,-2.521723 1.6958706,-4.5849486 3.7686018,-4.5849486 H 32.811085 c 2.072729,0 3.7686,2.0632256 3.7686,4.5849486 v 8.214699 c 0,2.521722 -1.695871,4.584948 -3.7686,4.584948 z"
         style="fill:#1c4a8b;stroke:#221f1f;stroke-width:0.346397;stroke-miterlimit:10" />
      <g
         id="XMLID_163_"
         transform="matrix(0.3188012,0,0,0.29923781,-55.836053,-15.590772)">
        <linearGradient
           id="linearGradient51576"
           gradientUnits="userSpaceOnUse"
           x1="-7854.5342"
           y1="-8001.5151"
           x2="-7819.292"
           y2="-8001.5151"
           gradientTransform="matrix(-1,0.0050054,-0.0050054,-1,-7573.2466,-7851.8403)">
          <stop
             offset="5.618000e-003"
             style="stop-color:#FEDC00"
             id="stop51562" />
          <stop
             offset="5.735702e-002"
             style="stop-color:#F8D10F"
             id="stop51564" />
          <stop
             offset="0.1534"
             style="stop-color:#EBB422"
             id="stop51566" />
          <stop
             offset="0.2833"
             style="stop-color:#D9892B"
             id="stop51568" />
          <stop
             offset="0.4402"
             style="stop-color:#C6522F"
             id="stop51570" />
          <stop
             offset="0.5225"
             style="stop-color:#BD2A2F"
             id="stop51572" />
          <stop
             offset="1"
             style="stop-color:#EB6537"
             id="stop51574" />
        </linearGradient>
        <path
           id="XMLID_54_"
           class="st12"
           d="m 287.2,104.3 c 7,-3 15,0 21,4 0,-2 0,-4 0,-6 4,4 8,8 13,9 -5,5 -11,6 -17,7 1,-2 2,-3 3,-4 -7,-2 -14,-4 -21,1 0,-4 -1,-7 1,-11 z"
           style="fill:url(#linearGradient53743)" />
      </g>
      <text
         xml:space="preserve"
         style="font-style:normal;font-weight:normal;font-size:4.23333px;line-height:1.25;font-family:sans-serif;white-space:pre;inline-size:26.3173;fill:#ffffff;fill-opacity:1;stroke:none;stroke-width:0.264583"
         x="41.913387"
         y="21.246508"
         id="text51657"
         transform="translate(-34.260944,-7.6450033)"><tspan
           x="41.913387"
           y="21.246508"><tspan
             style="font-size:4.23333px;text-align:center;text-anchor:middle;fill:#ffffff;stroke-width:0.264583">Density </tspan></tspan><tspan
           x="41.913387"
           y="26.53817"><tspan
             style="font-size:4.23333px;text-align:center;text-anchor:middle;fill:#ffffff;stroke-width:0.264583">Estimation </tspan></tspan><tspan
           x="41.913387"
           y="31.829832"><tspan
             style="font-size:4.23333px;text-align:center;text-anchor:middle;fill:#ffffff;stroke-width:0.264583">Algorithm</tspan></tspan></text>
      <text
         xml:space="preserve"
         style="font-style:normal;font-weight:normal;font-size:7.05556px;line-height:1.25;font-family:sans-serif;fill:#000000;fill-opacity:1;stroke:none;stroke-width:0.264583"
         x="13.683943"
         y="7.6683755"
         id="text51775"><tspan
           sodipodi:role="line"
           id="tspan51773"
           x="13.683943"
           y="7.6683755"
           style="font-size:7.05556px;stroke-width:0.264583">WP1</tspan></text>
    </g>
    <g
       id="g51919"
       transform="translate(25.396935,6.340009)">
      <path
         id="XMLID_139_-3"
         class="st2"
         d="M 74.279792,26.967763 H 49.8349 c -2.20104,0 -4.001892,-2.061986 -4.001892,-4.582192 v -8.209759 c 0,-2.520207 1.800852,-4.5821916 4.001892,-4.5821916 h 24.444892 c 2.201039,0 4.00189,2.0619846 4.00189,4.5821916 v 8.209759 c 0,2.520206 -1.800851,4.582192 -4.00189,4.582192 z"
         style="fill:#1c4a8b;stroke:#221f1f;stroke-width:0.356851;stroke-miterlimit:10" />
      <g
         id="XMLID_163_-7"
         transform="matrix(0.3188012,0,0,0.29923781,-14.729468,-15.369436)">
        <linearGradient
           id="linearGradient51865"
           gradientUnits="userSpaceOnUse"
           x1="-7854.5342"
           y1="-8001.5151"
           x2="-7819.292"
           y2="-8001.5151"
           gradientTransform="matrix(-1,0.0050054,-0.0050054,-1,-7573.2466,-7851.8403)">
          <stop
             offset="5.618000e-003"
             style="stop-color:#FEDC00"
             id="stop51562-5" />
          <stop
             offset="5.735702e-002"
             style="stop-color:#F8D10F"
             id="stop51564-9" />
          <stop
             offset="0.1534"
             style="stop-color:#EBB422"
             id="stop51566-2" />
          <stop
             offset="0.2833"
             style="stop-color:#D9892B"
             id="stop51568-2" />
          <stop
             offset="0.4402"
             style="stop-color:#C6522F"
             id="stop51570-8" />
          <stop
             offset="0.5225"
             style="stop-color:#BD2A2F"
             id="stop51572-9" />
          <stop
             offset="1"
             style="stop-color:#EB6537"
             id="stop51574-7" />
        </linearGradient>
        <path
           id="XMLID_54_-3"
           class="st12"
           d="m 287.2,104.3 c 7,-3 15,0 21,4 0,-2 0,-4 0,-6 4,4 8,8 13,9 -5,5 -11,6 -17,7 1,-2 2,-3 3,-4 -7,-2 -14,-4 -21,1 0,-4 -1,-7 1,-11 z"
           style="fill:url(#linearGradient53745)" />
      </g>
      <text
         xml:space="preserve"
         style="font-style:normal;font-weight:normal;font-size:4.23333px;line-height:1.25;font-family:sans-serif;white-space:pre;inline-size:32.524;fill:#ffffff;fill-opacity:1;stroke:none;stroke-width:0.264583"
         x="61.309601"
         y="21.246508"
         id="text51657-6"
         transform="translate(-15.350881,-7.2406229)"
         inkscape:transform-center-x="-0.10011188"
         inkscape:transform-center-y="0.40043122"><tspan
           x="61.309601"
           y="21.246508"><tspan
             style="text-align:center;text-anchor:middle">Evaluation of </tspan></tspan><tspan
           x="61.309601"
           y="26.53817"><tspan
             style="text-align:center;text-anchor:middle">Efficient </tspan></tspan><tspan
           x="61.309601"
           y="31.829832"><tspan
             style="text-align:center;text-anchor:middle">Approximation</tspan></tspan></text>
      <text
         xml:space="preserve"
         style="font-style:normal;font-weight:normal;font-size:7.05556px;line-height:1.25;font-family:sans-serif;fill:#000000;fill-opacity:1;stroke:none;stroke-width:0.264583"
         x="54.790531"
         y="7.8897109"
         id="text51775-1"><tspan
           sodipodi:role="line"
           id="tspan51773-2"
           x="54.790531"
           y="7.8897109"
           style="font-size:7.05556px;stroke-width:0.264583">WP2</tspan></text>
    </g>
    <path
       id="XMLID_139_-0"
       class="st2"
       d="m 140.12645,33.533609 h -23.01988 c -2.07273,0 -3.7686,-2.06322 -3.7686,-4.58494 v -8.2147 c 0,-2.52173 1.69587,-4.58495 3.7686,-4.58495 h 23.01988 c 2.07273,0 3.7686,2.06322 3.7686,4.58495 v 8.2147 c 0,2.52172 -1.69587,4.58494 -3.7686,4.58494 z"
       style="fill:#1c4a8b;stroke:#221f1f;stroke-width:0.346397;stroke-miterlimit:10" />
    <g
       id="XMLID_163_-3"
       transform="matrix(0.3188012,0,0,0.29923781,51.479305,-8.808811)">
      <linearGradient
         id="linearGradient52030"
         gradientUnits="userSpaceOnUse"
         x1="-7854.5342"
         y1="-8001.5151"
         x2="-7819.292"
         y2="-8001.5151"
         gradientTransform="matrix(-1,0.0050054,-0.0050054,-1,-7573.2466,-7851.8403)">
        <stop
           offset="5.618000e-003"
           style="stop-color:#FEDC00"
           id="stop51562-6" />
        <stop
           offset="5.735702e-002"
           style="stop-color:#F8D10F"
           id="stop51564-1" />
        <stop
           offset="0.1534"
           style="stop-color:#EBB422"
           id="stop51566-0" />
        <stop
           offset="0.2833"
           style="stop-color:#D9892B"
           id="stop51568-6" />
        <stop
           offset="0.4402"
           style="stop-color:#C6522F"
           id="stop51570-3" />
        <stop
           offset="0.5225"
           style="stop-color:#BD2A2F"
           id="stop51572-2" />
        <stop
           offset="1"
           style="stop-color:#EB6537"
           id="stop51574-0" />
      </linearGradient>
      <path
         id="XMLID_54_-6"
         class="st12"
         d="m 287.2,104.3 c 7,-3 15,0 21,4 0,-2 0,-4 0,-6 4,4 8,8 13,9 -5,5 -11,6 -17,7 1,-2 2,-3 3,-4 -7,-2 -14,-4 -21,1 0,-4 -1,-7 1,-11 z"
         style="fill:url(#linearGradient53741)" />
    </g>
    <text
       xml:space="preserve"
       style="font-style:normal;font-weight:normal;font-size:4.23333px;line-height:1.25;font-family:sans-serif;white-space:pre;inline-size:26.3173;fill:#ffffff;fill-opacity:1;stroke:none;stroke-width:0.264583"
       x="30.051588"
       y="21.246508"
       id="text51657-1"
       transform="translate(85.796095,-0.57989105)"><tspan
         x="30.051588"
         y="21.246508"><tspan
           style="text-align:center;text-anchor:middle">Anomaly </tspan></tspan><tspan
         x="30.051588"
         y="26.53817"><tspan
           style="text-align:center;text-anchor:middle">Detection </tspan></tspan><tspan
         x="30.051588"
         y="31.829832"><tspan
           style="text-align:center;text-anchor:middle">Algorithm</tspan></tspan></text>
    <text
       xml:space="preserve"
       style="font-style:normal;font-weight:normal;font-size:7.05556px;line-height:1.25;font-family:sans-serif;fill:#000000;fill-opacity:1;stroke:none;stroke-width:0.264583"
       x="120.99931"
       y="14.450337"
       id="text51775-5"><tspan
         sodipodi:role="line"
         id="tspan51773-5"
         x="120.99931"
         y="14.450337"
         style="font-size:7.05556px;stroke-width:0.264583">WP3</tspan></text>
    <path
       id="XMLID_139_-0-4"
       class="st2"
       d="m 180.40994,33.450239 h -23.01988 c -2.07273,0 -3.76861,-2.06323 -3.76861,-4.58495 v -8.2147 c 0,-2.52172 1.69588,-4.58495 3.76861,-4.58495 h 23.01988 c 2.07273,0 3.7686,2.06323 3.7686,4.58495 v 8.2147 c 0,2.52172 -1.69587,4.58495 -3.7686,4.58495 z"
       style="fill:#1c4a8b;stroke:#221f1f;stroke-width:0.346397;stroke-miterlimit:10" />
    <text
       xml:space="preserve"
       style="font-style:normal;font-weight:normal;font-size:4.23333px;line-height:1.25;font-family:sans-serif;white-space:pre;inline-size:26.3173;fill:#ffffff;fill-opacity:1;stroke:none;stroke-width:0.264583"
       x="62.954979"
       y="21.246508"
       id="text51657-1-7"
       transform="translate(92.526485,1.601919)"><tspan
         x="62.954979"
         y="21.246508"><tspan
           style="text-align:center;text-anchor:middle">Sistematic </tspan></tspan><tspan
         x="62.954979"
         y="26.53817"><tspan
           style="text-align:center;text-anchor:middle">Evaluation</tspan></tspan></text>
    <text
       xml:space="preserve"
       style="font-style:normal;font-weight:normal;font-size:7.05556px;line-height:1.25;font-family:sans-serif;fill:#000000;fill-opacity:1;stroke:none;stroke-width:0.264583"
       x="161.28279"
       y="14.366963"
       id="text51775-5-8"><tspan
         sodipodi:role="line"
         id="tspan51773-5-6"
         x="161.28279"
         y="14.366963"
         style="font-size:7.05556px;stroke-width:0.264583">WP4</tspan></text>
    <path
       style="fill:#1c4a8b;fill-opacity:1;stroke:#1c4a8b;stroke-width:0.264999"
       id="path52234"
       d="m 20.399545,82.631349 c 0.36081,0.16959 0.87412,0.4236 1.242,0.53259 1.79441,0.53162 3.69108,0.55533 5.54483,0.57024 1.05112,0.0186 2.09492,-0.089 3.1363,-0.21274 0,0 2.18954,-1.63517 2.18954,-1.63517 v 0 c -1.05246,0.1528 -2.10749,0.29667 -3.17458,0.28559 -1.81177,0.007 -3.66521,1e-4 -5.41703,-0.53371 -0.46619,-0.14206 -0.7675,-0.32352 -1.18363,-0.54474 0,0 -2.33743,1.53794 -2.33743,1.53794 z" />
    <g
       id="g53125"
       transform="translate(69.939825,0.26954895)">
      <path
         style="fill:#1c4a8b;fill-opacity:1;stroke:#1c4a8b;stroke-width:0.264999"
         id="path52238"
         d="m -39.815052,82.602825 c 0.462802,0.860268 0.815539,1.773962 1.055325,2.720067 0.217837,1.234228 0.09336,2.50549 0.05016,3.751934 -0.02066,1.087811 0.138329,2.163424 0.491858,3.193439 0.24353,0.709539 0.409331,0.99826 0.737332,1.6739 0.750052,1.438275 1.765996,2.700538 2.989512,3.758628 0.826293,0.576908 1.417494,0.915393 2.420411,0.625859 0,0 2.205971,-1.720591 2.205971,-1.720591 v 0 c -0.14923,0.06353 -0.424392,0.190926 -0.584676,0.216136 -0.631502,0.09932 -1.197274,-0.258543 -1.70239,-0.582681 -1.225624,-1.003057 -2.226379,-2.234113 -2.96009,-3.641725 -0.307308,-0.640176 -0.487032,-0.961832 -0.710903,-1.634684 -0.335913,-1.009578 -0.461018,-2.066239 -0.434494,-3.127054 0.04558,-1.274731 0.183965,-2.573777 -0.06453,-3.834395 -0.255202,-0.963866 -0.628859,-1.886648 -1.054003,-2.78784 0,0 -2.43949,1.389007 -2.43949,1.389007 z" />
      <path
         style="fill:#1c4a8b;fill-opacity:1;stroke:#1c4a8b;stroke-width:0.264999"
         id="path52238-8"
         d="m -39.833538,82.597756 c 0.462802,-0.860268 0.815539,-1.773962 1.055325,-2.720067 0.217837,-1.234228 0.09336,-2.50549 0.05016,-3.751934 -0.02066,-1.087811 0.138329,-2.163424 0.491858,-3.193439 0.24353,-0.709539 0.409331,-0.99826 0.737332,-1.6739 0.750052,-1.438275 1.765996,-2.700538 2.989512,-3.758628 0.826293,-0.576908 1.417494,-0.915393 2.420411,-0.625859 0,0 2.205971,1.720591 2.205971,1.720591 v 0 c -0.14923,-0.06353 -0.424392,-0.190926 -0.584676,-0.216136 -0.631502,-0.09932 -1.197274,0.258543 -1.70239,0.582681 -1.225624,1.003057 -2.226379,2.234113 -2.96009,3.641725 -0.307308,0.640176 -0.487032,0.961832 -0.710903,1.634684 -0.335913,1.009578 -0.461018,2.066239 -0.434494,3.127054 0.04558,1.274731 0.183965,2.573777 -0.06453,3.834395 -0.255202,0.963866 -0.628859,1.886648 -1.054003,2.78784 0,0 -2.43949,-1.389007 -2.43949,-1.389007 z" />
    </g>
    <text
       xml:space="preserve"
       style="font-style:normal;font-weight:normal;font-size:6.35px;line-height:1.25;font-family:sans-serif;white-space:pre;inline-size:34.874;fill:#000000;fill-opacity:1;stroke:none;stroke-width:0.264583"
       x="-13.651034"
       y="70.661652"
       id="text53093"
       transform="translate(48.488919,9.6134458)"><tspan
         x="-13.651034"
         y="70.661652"><tspan>Evaluation </tspan></tspan><tspan
         x="-13.651034"
         y="78.59915"><tspan>of method</tspan></tspan></text>
    <g
       id="g53121"
       transform="translate(72.304076,1.587052)">
      <path
         style="fill:#1c4a8b;fill-opacity:1;stroke:#1c4a8b;stroke-width:0.264999"
         id="path52238-84"
         d="m 0.83643945,82.237865 c -0.462802,0.860269 -0.815539,1.773962 -1.055325,2.720067 -0.217837,1.234228 -0.09336,2.50549 -0.05016,3.751935 0.02066,1.087811 -0.138329,2.163424 -0.491858,3.193439 -0.24352995,0.709539 -0.40933095,0.99826 -0.73733195,1.6739 -0.750052,1.438275 -1.765996,2.700537 -2.989512,3.758628 -0.826293,0.576908 -1.417494,0.915393 -2.420411,0.625859 0,0 -2.205971,-1.720591 -2.205971,-1.720591 v 0 c 0.14923,0.06353 0.424392,0.190926 0.584676,0.216136 0.631502,0.09932 1.197274,-0.258543 1.70239,-0.582681 1.225624,-1.003057 2.226379,-2.234113 2.96009,-3.641725 0.307308,-0.640176 0.487032,-0.961832 0.710903,-1.634684 0.335913,-1.009578 0.461018,-2.066239 0.434494,-3.127054 -0.04558,-1.274731 -0.183965,-2.573777 0.06453,-3.834395 0.255202,-0.963866 0.628859,-1.886648 1.054003,-2.78784 0,0 2.43948995,1.389007 2.43948995,1.389007 z" />
      <path
         style="fill:#1c4a8b;fill-opacity:1;stroke:#1c4a8b;stroke-width:0.264999"
         id="path52238-8-3"
         d="m 0.85492545,82.232797 c -0.462802,-0.860268 -0.815539,-1.773962 -1.055325,-2.720067 -0.217837,-1.234228 -0.09336,-2.50549 -0.05016,-3.751935 0.02066,-1.087811 -0.138329,-2.163424 -0.491858,-3.193438 -0.24353,-0.70954 -0.40933095,-0.998261 -0.73733195,-1.673901 -0.750052,-1.438275 -1.765996,-2.700537 -2.989512,-3.758628 -0.826293,-0.576908 -1.417494,-0.915392 -2.420411,-0.625859 0,0 -2.205971,1.720591 -2.205971,1.720591 v 0 c 0.14923,-0.06353 0.424392,-0.190926 0.584676,-0.216136 0.631502,-0.09932 1.197274,0.258543 1.70239,0.582681 1.225624,1.003057 2.226379,2.234113 2.96009,3.641725 0.307308,0.640176 0.487032,0.961832 0.710903,1.634684 0.335913,1.009578 0.461018,2.066239 0.434494,3.127054 -0.04558,1.274731 -0.183965,2.573777 0.06453,3.834395 0.255202,0.963866 0.628859,1.886648 1.054003,2.78784 0,0 2.43948995,-1.389007 2.43948995,-1.389007 z" />
    </g>
    <g
       id="g53269"
       transform="matrix(-1,0,0,1,74.249051,0.45720895)">
      <path
         style="fill:#1c4a8b;fill-opacity:1;stroke:#1c4a8b;stroke-width:0.362896"
         id="path52238-84-0"
         d="m 1.0734314,83.373223 c -0.41569389,1.796117 -0.73252622,3.703775 -0.94790469,5.679106 -0.19566363,2.576889 -0.08385702,5.2311 -0.04505427,7.833496 0.01855697,2.27119 -0.12424866,4.516915 -0.44179237,6.667435 -0.21874136,1.48141 -0.3676657,2.08422 -0.66227987,3.49486 -0.673705,3.00291 -1.5862374,5.63833 -2.6852132,7.84747 -0.7421856,1.2045 -1.273209,1.91121 -2.1740404,1.3067 0,0 -1.9814278,-3.59234 -1.9814278,-3.59234 v 0 c 0.13404,0.13265 0.3811937,0.39862 0.5251625,0.45126 0.5672222,0.20736 1.075405,-0.5398 1.5291059,-1.21656 1.1008692,-2.09423 1.9997585,-4.6645 2.658786,-7.60339 0.2760274,-1.33659 0.4374577,-2.00816 0.6385411,-3.41298 0.3017207,-2.10785 0.4140915,-4.314006 0.3902674,-6.528835 -0.040941,-2.661453 -0.1652395,-5.373672 0.057962,-8.005659 0.2292253,-2.012411 0.5648482,-3.939046 0.9467173,-5.820604 0,0 2.1911773,2.900043 2.1911773,2.900043 z" />
      <path
         style="fill:#1c4a8b;fill-opacity:1;stroke:#1c4a8b;stroke-width:0.362896"
         id="path52238-8-3-6"
         d="M 1.0900358,83.362641 C 0.67434185,81.566527 0.35750951,79.658868 0.14213105,77.683537 -0.0535326,75.106649 0.05827404,72.452438 0.09707676,69.850041 0.11563382,67.57885 -0.0271719,65.333128 -0.3447156,63.182609 c -0.21874136,-1.481418 -0.36766564,-2.084226 -0.6622799,-3.494864 -0.673705,-3.002907 -1.5862374,-5.638329 -2.6852131,-7.847469 -0.7421857,-1.204501 -1.273209,-1.911205 -2.1740404,-1.306703 0,0 -1.9814279,3.592343 -1.9814279,3.592343 v 0 c 0.1340401,-0.132647 0.3811937,-0.398624 0.5251625,-0.45126 0.5672222,-0.207364 1.075405,0.539801 1.5291058,1.216555 1.1008692,2.094236 1.9997586,4.664502 2.6587861,7.603392 0.2760275,1.336594 0.4374577,2.008164 0.6385411,3.412982 0.3017207,2.107852 0.4140916,4.314008 0.3902674,6.528835 -0.04094,2.661455 -0.1652394,5.373672 0.057962,8.00566 0.2292253,2.012412 0.5648482,3.939047 0.9467174,5.820605 0,0 2.1911772,-2.900046 2.1911772,-2.900046 z" />
    </g>
    <text
       xml:space="preserve"
       style="font-style:normal;font-weight:normal;font-size:6.35px;line-height:1.25;font-family:sans-serif;white-space:pre;inline-size:59.0969;fill:#000000;fill-opacity:1;stroke:none;stroke-width:0.264583"
       x="67.125946"
       y="61.276352"
       id="text53185"
       transform="translate(10.65797,3.7862908)"><tspan
         x="67.125946"
         y="61.276352"><tspan
           style="text-align:center;text-anchor:middle">Review of Efficient </tspan></tspan><tspan
         x="67.125946"
         y="69.21385"><tspan
           style="text-align:center;text-anchor:middle">KDE</tspan></tspan></text>
    <text
       xml:space="preserve"
       style="font-style:normal;font-weight:normal;font-size:6.35px;line-height:1.25;font-family:sans-serif;white-space:pre;inline-size:58.5301;fill:#000000;fill-opacity:1;stroke:none;stroke-width:0.264583"
       x="59.024742"
       y="80.247292"
       id="text53189"
       transform="translate(19.096939,3.4000801)"><tspan
         x="59.024742"
         y="80.247292"><tspan
           style="text-align:center;text-anchor:middle">Experimental </tspan></tspan><tspan
         x="59.024742"
         y="88.18479"><tspan
           style="text-align:center;text-anchor:middle">Design</tspan></tspan></text>
    <text
       xml:space="preserve"
       style="font-style:normal;font-weight:normal;font-size:6.35px;line-height:1.25;font-family:sans-serif;white-space:pre;inline-size:60.874;fill:#000000;fill-opacity:1;stroke:none;stroke-width:0.264583"
       x="57.915955"
       y="100.06767"
       id="text53193"
       transform="translate(18.441847,4.14403)"><tspan
         x="57.915955"
         y="100.06767"><tspan
           style="text-align:center;text-anchor:middle">Assess the new </tspan></tspan><tspan
         x="57.915955"
         y="108.00517"><tspan
           style="text-align:center;text-anchor:middle">method</tspan></tspan></text>
    <g
       id="g53265"
       transform="matrix(-1,0,0,1,68.586101,0.74838895)">
      <path
         style="fill:#1c4a8b;fill-opacity:1;stroke:#1c4a8b;stroke-width:0.362896"
         id="path52238-84-0-6"
         d="m -73.192121,83.082047 c 0.415694,1.796117 0.732526,3.703775 0.947904,5.679106 0.195664,2.576889 0.08386,5.2311 0.04505,7.833496 -0.01856,2.27119 0.124249,4.516911 0.441793,6.667431 0.218741,1.48141 0.367665,2.08422 0.66228,3.49486 0.673705,3.00291 1.586237,5.63833 2.685213,7.84747 0.742186,1.2045 1.273209,1.91121 2.17404,1.3067 0,0 1.981428,-3.59234 1.981428,-3.59234 v 0 c -0.13404,0.13265 -0.381193,0.39862 -0.525162,0.45126 -0.567222,0.20736 -1.075405,-0.5398 -1.529106,-1.21656 -1.100869,-2.09423 -1.999759,-4.6645 -2.658786,-7.60339 -0.276027,-1.33659 -0.437458,-2.00816 -0.638541,-3.41298 -0.301721,-2.107846 -0.414092,-4.314002 -0.390268,-6.528831 0.04094,-2.661453 0.16524,-5.373672 -0.05796,-8.005659 -0.229225,-2.012411 -0.564848,-3.939046 -0.946717,-5.820604 0,0 -2.191177,2.900043 -2.191177,2.900043 z" />
      <path
         style="fill:#1c4a8b;fill-opacity:1;stroke:#1c4a8b;stroke-width:0.362896"
         id="path52238-8-3-6-6"
         d="m -73.208726,83.071465 c 0.415694,-1.796114 0.732527,-3.703773 0.947905,-5.679104 0.195664,-2.576888 0.08386,-5.231099 0.04505,-7.833496 -0.01856,-2.271191 0.124249,-4.516913 0.441793,-6.667432 0.218741,-1.481418 0.367665,-2.084226 0.662279,-3.494864 0.673705,-3.002907 1.586238,-5.638329 2.685214,-7.847469 0.742185,-1.204501 1.273209,-1.911205 2.17404,-1.306703 0,0 1.981428,3.592343 1.981428,3.592343 v 0 c -0.13404,-0.132647 -0.381194,-0.398624 -0.525162,-0.45126 -0.567223,-0.207364 -1.075405,0.539801 -1.529106,1.216555 -1.10087,2.094236 -1.999759,4.664502 -2.658786,7.603392 -0.276028,1.336594 -0.437458,2.008164 -0.638542,3.412982 -0.30172,2.107852 -0.414091,4.314008 -0.390267,6.528835 0.04094,2.661455 0.165239,5.373672 -0.05796,8.00566 -0.229225,2.012412 -0.564848,3.939047 -0.946717,5.820605 0,0 -2.191178,-2.900046 -2.191178,-2.900046 z" />
    </g>
    <text
       xml:space="preserve"
       style="font-style:normal;font-weight:normal;font-size:6.35px;line-height:1.25;font-family:sans-serif;white-space:pre;inline-size:39.9372;fill:#000000;fill-opacity:1;stroke:none;stroke-width:0.264583"
       x="90.283569"
       y="60.714725"
       id="text53273"
       transform="translate(58.392741,-0.10908631)"><tspan
         x="90.283569"
         y="60.714725"><tspan
           style="font-size:6.35px;text-align:center;text-anchor:middle;stroke-width:0.264583">D.2.1 </tspan></tspan><tspan
         x="90.283569"
         y="68.652224"><tspan
           style="font-size:6.35px;text-align:center;text-anchor:middle;stroke-width:0.264583">Experiment</tspan></tspan><tspan
         x="90.283569"
         y="76.589728"><tspan
           style="font-size:6.35px;text-align:center;text-anchor:middle;stroke-width:0.264583">al Design</tspan></tspan></text>
    <text
       xml:space="preserve"
       style="font-style:normal;font-weight:normal;font-size:6.35px;line-height:1.25;font-family:sans-serif;white-space:pre;inline-size:41.8448;fill:#000000;fill-opacity:1;stroke:none;stroke-width:0.264583"
       x="91.681999"
       y="98.656609"
       id="text53277"
       transform="translate(55.844438,-3.7900139)"><tspan
         x="91.681999"
         y="98.656609"><tspan
           style="font-size:6.35px;text-align:center;text-anchor:middle;stroke-width:0.264583">D.2.2 </tspan></tspan><tspan
         x="91.681999"
         y="106.59411"><tspan
           style="font-size:6.35px;text-align:center;text-anchor:middle;stroke-width:0.264583">Conference </tspan></tspan><tspan
         x="91.681999"
         y="114.53161"><tspan
           style="font-size:6.35px;text-align:center;text-anchor:middle;stroke-width:0.264583">Paper</tspan></tspan></text>
    <path
       style="fill:#1c4a8b;stroke:#1c4a8b;stroke-width:0.264999"
       id="path54090"
       d="m 85.128453,34.482169 c 0.12001,0.854951 0.224145,1.72021 0.182904,2.584156 -0.153117,1.020601 -0.527431,1.477505 -1.356942,2.052609 -0.172466,0.09468 -0.68308,0.390157 -0.517395,0.284054 0.567902,-0.36367 1.202005,-0.631352 1.72484,-1.057273 0.208018,-0.16946 -0.502277,0.189715 -0.75832,0.269907 -1.037185,0.32485 -2.089073,0.482513 -3.161921,0.63522 -2.527856,0.29632 -5.073042,0.340479 -7.614103,0.2706 -2.3065,-0.112438 -4.599815,-0.443291 -6.863363,-0.892149 -1.358328,-0.229351 -2.670312,-0.642937 -3.993787,-1.01029 -0.746964,-0.225063 -1.494378,-0.44768 -2.240815,-0.674502 -0.952238,-0.28783 -1.924219,-0.496433 -2.894168,-0.713674 -0.752377,-0.154795 -1.511782,-0.320157 -2.283061,-0.266721 -0.734129,0.05383 -1.382546,0.407656 -2.019107,0.74754 -0.933352,0.542631 -1.876126,1.065861 -2.847758,1.536756 -0.777838,0.325043 -1.537903,0.679174 -2.280975,1.076227 -1.592456,0.843981 -5.446916,3.217465 -0.950553,0.539935 0.110522,-0.06582 -0.227145,0.120795 -0.340735,0.181158 -0.488405,0.259537 -0.270783,0.144409 -0.783741,0.413932 -1.067144,0.58161 -2.235864,0.893734 -3.409397,1.172763 -1.40657,0.33409 -2.77739,0.446929 -4.218176,0.363649 -1.531651,-0.143063 -3.000205,-0.600996 -4.414258,-1.186649 -0.996939,-0.431903 -1.888037,-1.052438 -2.770711,-1.676127 -0.823695,-0.652285 -1.727033,-1.173393 -2.663502,-1.642218 -0.710171,-0.370957 -1.468446,-0.600049 -2.2586,-0.71146 -0.699952,-0.07177 -1.404178,-0.08872 -2.097746,0.03594 -1.327412,0.390377 -2.505781,1.2715 -3.652533,1.970199 -0.158113,0.09634 -0.303827,0.212981 -0.442898,0.335208 -0.329811,0.289862 -0.46052,0.487707 -0.731217,0.830636 -0.579731,0.80401 -0.916608,1.665255 -1.099223,2.631019 -0.09829,0.761569 -0.155653,1.539092 -0.07433,2.304211 0.07605,0.716307 0.320128,1.39986 0.614571,2.052778 0.225007,0.562134 0.453049,1.118576 0.728,1.658159 0.302408,0.598173 0.609369,1.183363 0.999178,1.731106 0.426176,0.67393 0.859596,1.33873 1.35348,1.965489 0.499204,0.70568 0.919162,1.457536 1.239172,2.259912 0.295444,0.805317 0.370452,1.660739 0.410581,2.510459 0.04478,0.857747 0.02457,1.708973 -0.06918,2.561728 -0.165785,0.856681 -0.49061,1.673653 -0.890724,2.446345 -0.430348,0.702672 -0.928533,1.365464 -1.435001,2.015495 -0.530958,0.541661 -1.074909,1.071325 -1.592098,1.625449 -0.418986,0.42418 -0.837045,0.848091 -1.122226,1.378096 -0.319033,0.425069 -0.562925,0.880972 -0.686152,1.398275 -0.213149,0.608044 -0.324054,1.240205 -0.387582,1.879156 -0.05092,0.668337 -0.08758,1.331367 0.08546,1.982949 0.238704,0.692427 0.746956,1.198596 1.301502,1.650536 0.44579,0.366141 0.98963,0.605174 1.389803,1.025023 0.287444,0.418282 0.282027,0.939779 0.300458,1.427919 -0.01118,0.317399 0.03104,0.6399 0.0058,0.956979 -0.02015,0.252752 -0.09838,0.511485 -0.148325,0.759677 -0.01417,0.08447 -0.02057,0.170617 -0.04252,0.253405 -0.03786,0.142764 -0.109322,0.274624 -0.155378,0.414957 -0.07609,0.231833 -0.119166,0.465291 -0.157739,0.705569 -0.06928,0.540144 -0.072,1.085752 -0.07646,1.629418 -0.0015,0.282967 -9.53e-4,0.565933 -6.09e-4,0.8489 0,0 2.495365,-1.271667 2.495365,-1.271667 v 0 c -4e-5,-0.282062 -3.18e-4,-0.564126 0.0024,-0.846177 0.0073,-0.530537 0.01295,-1.064101 0.101576,-1.58867 0.09604,-0.464155 0.282173,-0.90094 0.356147,-1.369896 0.113554,-0.587629 0.149033,-1.173641 0.106251,-1.772412 -0.02511,-0.559554 -0.05088,-1.131927 -0.38869,-1.604764 -0.401483,-0.44537 -0.949858,-0.695796 -1.422806,-1.055663 -0.518612,-0.397727 -0.997173,-0.856912 -1.208075,-1.49284 -0.145571,-0.624319 -0.09024,-1.262177 -0.0373,-1.896751 0.07319,-0.625861 0.203504,-1.239726 0.409356,-1.836531 0.164653,-0.48496 0.438005,-0.907854 0.719602,-1.333426 0.324021,-0.486574 0.734624,-0.899511 1.140557,-1.317484 0.532924,-0.542319 1.064696,-1.087149 1.574139,-1.651183 0.499833,-0.663583 1.009746,-1.327941 1.405378,-2.060324 0.388275,-0.804883 0.717927,-1.647163 0.848418,-2.536147 0.08983,-0.866357 0.09714,-1.733886 0.05426,-2.604021 -0.05227,-0.877356 -0.146673,-1.758384 -0.460442,-2.586898 -0.331183,-0.826788 -0.760386,-1.603885 -1.273062,-2.333117 -0.4934,-0.621739 -0.920598,-1.284245 -1.342541,-1.955577 -0.382397,-0.537435 -0.674773,-1.114454 -0.96786,-1.702848 -0.276466,-0.533069 -0.499701,-1.085779 -0.727816,-1.641139 -0.279556,-0.626851 -0.513755,-1.280501 -0.574199,-1.969154 -0.05346,-0.743169 -0.01285,-1.494215 0.105487,-2.229855 0.196327,-0.91263 0.560491,-1.759881 1.141381,-2.499421 0.314899,-0.359516 0.382252,-0.4689 0.756566,-0.767596 0.144153,-0.11503 0.615434,-0.404328 0.45163,-0.319593 -0.654105,0.338365 -1.28538,0.719167 -1.92606,1.08231 -0.132734,0.07523 0.263677,-0.154538 0.402171,-0.218553 0.120904,-0.05589 0.249433,-0.09353 0.37415,-0.140293 0.668666,-0.182436 1.348138,-0.158046 2.035842,-0.108625 0.776068,0.07688 1.526102,0.264237 2.226502,0.618334 0.08479,0.04178 0.878148,0.431401 0.957872,0.475798 0.590092,0.32862 1.131544,0.739798 1.678623,1.133001 0.900435,0.636122 1.807781,1.271365 2.823733,1.714299 1.434161,0.600345 2.922699,1.073724 4.473594,1.254019 0.260188,0.02135 0.519753,0.05269 0.780568,0.06408 1.166829,0.05099 2.332694,-0.130154 3.474181,-0.35134 1.173861,-0.277144 2.355307,-0.542814 3.434498,-1.10503 1.54973,-0.80413 6.733616,-3.798792 1.755256,-0.950283 -0.103405,0.05917 0.206946,-0.118089 0.31042,-0.177133 0.330165,-0.168696 0.645173,-0.372885 0.980164,-0.531043 0.429962,-0.202991 0.879677,-0.368773 1.312154,-0.5666 0.973434,-0.461144 1.923333,-0.965821 2.848991,-1.517377 0.605946,-0.345287 1.234757,-0.720066 1.934662,-0.821817 0.163447,-0.0245 0.408231,-0.06743 0.571913,-0.06512 0.565296,0.008 1.125966,0.156022 1.681086,0.241673 0.962763,0.209471 1.925373,0.417833 2.869607,0.701395 0.747951,0.241607 1.504315,0.44986 2.256353,0.678368 1.348486,0.345212 2.677922,0.77062 4.057471,0.98811 2.279099,0.448696 4.587994,0.782034 6.908059,0.915625 2.548815,0.07432 5.099589,0.03438 7.638092,-0.234305 1.069102,-0.134479 2.115037,-0.274563 3.154976,-0.565438 0.257969,-0.07216 0.527431,-0.11983 0.767109,-0.239456 1.913729,-0.955167 2.259925,-1.182042 3.521731,-1.962639 0.135946,-0.111475 0.280969,-0.21272 0.407842,-0.33442 0.538835,-0.51688 0.789456,-1.217835 0.856343,-1.947588 0.01683,-0.882771 -0.0931,-1.761389 -0.184219,-2.638478 0,0 -2.481818,1.309238 -2.481818,1.309238 z" />
  </g>
</svg>
