<?xml version="1.0" encoding="UTF-8" standalone="no"?>
<svg
   xmlns:dc="http://purl.org/dc/elements/1.1/"
   xmlns:cc="http://creativecommons.org/ns#"
   xmlns:rdf="http://www.w3.org/1999/02/22-rdf-syntax-ns#"
   xmlns:svg="http://www.w3.org/2000/svg"
   xmlns="http://www.w3.org/2000/svg"
   xmlns:xlink="http://www.w3.org/1999/xlink"
   xmlns:sodipodi="http://sodipodi.sourceforge.net/DTD/sodipodi-0.dtd"
   xmlns:inkscape="http://www.inkscape.org/namespaces/inkscape"
   width="171.50867mm"
   height="108.06801mm"
   viewBox="0 0 171.50867 108.06801"
   version="1.1"
   id="svg51586"
   inkscape:version="1.0.2 (e86c870879, 2021-01-15)"
   sodipodi:docname="work_packages_wo_activities_4.svg">
  <defs
     id="defs51580">
    <linearGradient
       id="XMLID_3_"
       gradientUnits="userSpaceOnUse"
       x1="-7854.5342"
       y1="-8001.5151"
       x2="-7819.292"
       y2="-8001.5151"
       gradientTransform="matrix(-1,0.0050054,-0.0050054,-1,-7573.2466,-7851.8403)">
      <stop
         offset="5.618000e-003"
         style="stop-color:#FEDC00"
         id="stop11728" />
      <stop
         offset="5.735702e-002"
         style="stop-color:#F8D10F"
         id="stop11730" />
      <stop
         offset="0.1534"
         style="stop-color:#EBB422"
         id="stop11732" />
      <stop
         offset="0.2833"
         style="stop-color:#D9892B"
         id="stop11734" />
      <stop
         offset="0.4402"
         style="stop-color:#C6522F"
         id="stop11736" />
      <stop
         offset="0.5225"
         style="stop-color:#BD2A2F"
         id="stop11738" />
      <stop
         offset="1"
         style="stop-color:#EB6537"
         id="stop11740" />
    </linearGradient>
    <linearGradient
       id="XMLID_3_-6"
       gradientUnits="userSpaceOnUse"
       x1="-7854.5342"
       y1="-8001.5151"
       x2="-7819.292"
       y2="-8001.5151"
       gradientTransform="matrix(-1,0.0050054,-0.0050054,-1,-7573.2466,-7851.8403)">
      <stop
         offset="5.618000e-003"
         style="stop-color:#FEDC00"
         id="stop11728-1" />
      <stop
         offset="5.735702e-002"
         style="stop-color:#F8D10F"
         id="stop11730-8" />
      <stop
         offset="0.1534"
         style="stop-color:#EBB422"
         id="stop11732-7" />
      <stop
         offset="0.2833"
         style="stop-color:#D9892B"
         id="stop11734-9" />
      <stop
         offset="0.4402"
         style="stop-color:#C6522F"
         id="stop11736-2" />
      <stop
         offset="0.5225"
         style="stop-color:#BD2A2F"
         id="stop11738-0" />
      <stop
         offset="1"
         style="stop-color:#EB6537"
         id="stop11740-2" />
    </linearGradient>
    <linearGradient
       id="XMLID_3_-9"
       gradientUnits="userSpaceOnUse"
       x1="-7854.5342"
       y1="-8001.5151"
       x2="-7819.292"
       y2="-8001.5151"
       gradientTransform="matrix(-1,0.0050054,-0.0050054,-1,-7573.2466,-7851.8403)">
      <stop
         offset="5.618000e-003"
         style="stop-color:#FEDC00"
         id="stop11728-3" />
      <stop
         offset="5.735702e-002"
         style="stop-color:#F8D10F"
         id="stop11730-1" />
      <stop
         offset="0.1534"
         style="stop-color:#EBB422"
         id="stop11732-9" />
      <stop
         offset="0.2833"
         style="stop-color:#D9892B"
         id="stop11734-4" />
      <stop
         offset="0.4402"
         style="stop-color:#C6522F"
         id="stop11736-7" />
      <stop
         offset="0.5225"
         style="stop-color:#BD2A2F"
         id="stop11738-8" />
      <stop
         offset="1"
         style="stop-color:#EB6537"
         id="stop11740-4" />
    </linearGradient>
    <linearGradient
       id="XMLID_3_-9-4"
       gradientUnits="userSpaceOnUse"
       x1="-7854.5342"
       y1="-8001.5151"
       x2="-7819.292"
       y2="-8001.5151"
       gradientTransform="matrix(-1,0.0050054,-0.0050054,-1,-7573.2466,-7851.8403)">
      <stop
         offset="5.618000e-003"
         style="stop-color:#FEDC00"
         id="stop11728-3-7" />
      <stop
         offset="5.735702e-002"
         style="stop-color:#F8D10F"
         id="stop11730-1-6" />
      <stop
         offset="0.1534"
         style="stop-color:#EBB422"
         id="stop11732-9-5" />
      <stop
         offset="0.2833"
         style="stop-color:#D9892B"
         id="stop11734-4-6" />
      <stop
         offset="0.4402"
         style="stop-color:#C6522F"
         id="stop11736-7-9" />
      <stop
         offset="0.5225"
         style="stop-color:#BD2A2F"
         id="stop11738-8-3" />
      <stop
         offset="1"
         style="stop-color:#EB6537"
         id="stop11740-4-7" />
    </linearGradient>
    <linearGradient
       id="XMLID_3_-5"
       gradientUnits="userSpaceOnUse"
       x1="-7854.5342"
       y1="-8001.5151"
       x2="-7819.292"
       y2="-8001.5151"
       gradientTransform="matrix(-1,0.0050054,-0.0050054,-1,-7573.2466,-7851.8403)">
      <stop
         offset="5.618000e-003"
         style="stop-color:#FEDC00"
         id="stop11728-17" />
      <stop
         offset="5.735702e-002"
         style="stop-color:#F8D10F"
         id="stop11730-4" />
      <stop
         offset="0.1534"
         style="stop-color:#EBB422"
         id="stop11732-1" />
      <stop
         offset="0.2833"
         style="stop-color:#D9892B"
         id="stop11734-7" />
      <stop
         offset="0.4402"
         style="stop-color:#C6522F"
         id="stop11736-1" />
      <stop
         offset="0.5225"
         style="stop-color:#BD2A2F"
         id="stop11738-1" />
      <stop
         offset="1"
         style="stop-color:#EB6537"
         id="stop11740-1" />
    </linearGradient>
    <linearGradient
       inkscape:collect="always"
       xlink:href="#XMLID_3_-5"
       id="linearGradient55824"
       gradientUnits="userSpaceOnUse"
       gradientTransform="matrix(-1,0.0050054,-0.0050054,-1,-7573.2466,-7851.8403)"
       x1="-7854.5342"
       y1="-8001.5151"
       x2="-7819.292"
       y2="-8001.5151" />
    <linearGradient
       inkscape:collect="always"
       xlink:href="#XMLID_3_-5"
       id="linearGradient56406"
       gradientUnits="userSpaceOnUse"
       gradientTransform="matrix(-1,0.0050054,-0.0050054,-1,-7573.2466,-7851.8403)"
       x1="-7854.5342"
       y1="-8001.5151"
       x2="-7819.292"
       y2="-8001.5151" />
    <linearGradient
       inkscape:collect="always"
       xlink:href="#XMLID_3_-5"
       id="linearGradient56408"
       gradientUnits="userSpaceOnUse"
       gradientTransform="matrix(-1,0.0050054,-0.0050054,-1,-7573.2466,-7851.8403)"
       x1="-7854.5342"
       y1="-8001.5151"
       x2="-7819.292"
       y2="-8001.5151" />
  </defs>
  <sodipodi:namedview
     id="base"
     pagecolor="#ffffff"
     bordercolor="#666666"
     borderopacity="1.0"
     inkscape:pageopacity="0.0"
     inkscape:pageshadow="2"
     inkscape:zoom="1.4"
     inkscape:cx="337.01146"
     inkscape:cy="190.10047"
     inkscape:document-units="mm"
     inkscape:current-layer="g56404"
     inkscape:document-rotation="0"
     showgrid="false"
     inkscape:snap-others="false"
     inkscape:object-nodes="false"
     inkscape:snap-nodes="false"
     inkscape:snap-bbox="false"
     inkscape:snap-bbox-midpoints="false"
     inkscape:snap-bbox-edge-midpoints="false"
     inkscape:bbox-nodes="false"
     inkscape:bbox-paths="false"
     inkscape:snap-intersection-paths="false"
     inkscape:object-paths="false"
     inkscape:snap-midpoints="false"
     inkscape:snap-smooth-nodes="false"
     inkscape:snap-object-midpoints="false"
     inkscape:snap-center="true"
     inkscape:snap-text-baseline="false"
     inkscape:window-width="2560"
     inkscape:window-height="1372"
     inkscape:window-x="1920"
     inkscape:window-y="0"
     inkscape:window-maximized="1"
     fit-margin-top="0"
     fit-margin-left="0"
     fit-margin-right="0"
     fit-margin-bottom="0" />
  <metadata
     id="metadata51583">
    <rdf:RDF>
      <cc:Work
         rdf:about="">
        <dc:format>image/svg+xml</dc:format>
        <dc:type
           rdf:resource="http://purl.org/dc/dcmitype/StillImage" />
        <dc:title></dc:title>
      </cc:Work>
    </rdf:RDF>
  </metadata>
  <g
     inkscape:groupmode="layer"
     id="g56404"
     inkscape:label="WP4"
     style="display:inline">
    <g
       id="g56218"
       data-fragment-index="2"
       class="fragment fade-in">
      <g
         id="g56202"
         transform="matrix(-1,0,0,1,57.866167,-8.9706444)">
        <path
           style="fill:#1c4a8b;fill-opacity:1;stroke:#1c4a8b;stroke-width:0.362896"
           id="path56198"
           d="m 1.0734314,83.373223 c -0.41569389,1.796117 -0.73252622,3.703775 -0.94790469,5.679106 -0.19566363,2.576889 -0.08385702,5.2311 -0.04505427,7.833496 0.01855697,2.27119 -0.12424866,4.516915 -0.44179237,6.667435 -0.21874136,1.48141 -0.3676657,2.08422 -0.66227987,3.49486 -0.673705,3.00291 -1.5862374,5.63833 -2.6852132,7.84747 -0.7421856,1.2045 -1.273209,1.91121 -2.1740404,1.3067 0,0 -1.9814278,-3.59234 -1.9814278,-3.59234 v 0 c 0.13404,0.13265 0.3811937,0.39862 0.5251625,0.45126 0.5672222,0.20736 1.075405,-0.5398 1.5291059,-1.21656 1.1008692,-2.09423 1.9997585,-4.6645 2.658786,-7.60339 0.2760274,-1.33659 0.4374577,-2.00816 0.6385411,-3.41298 0.3017207,-2.10785 0.4140915,-4.314006 0.3902674,-6.528835 -0.040941,-2.661453 -0.1652395,-5.373672 0.057962,-8.005659 0.2292253,-2.012411 0.5648482,-3.939046 0.9467173,-5.820604 0,0 2.1911773,2.900043 2.1911773,2.900043 z" />
        <path
           style="fill:#1c4a8b;fill-opacity:1;stroke:#1c4a8b;stroke-width:0.362896"
           id="path56200"
           d="M 1.0900358,83.362641 C 0.67434185,81.566527 0.35750951,79.658868 0.14213105,77.683537 -0.0535326,75.106649 0.05827404,72.452438 0.09707676,69.850041 0.11563382,67.57885 -0.0271719,65.333128 -0.3447156,63.182609 c -0.21874136,-1.481418 -0.36766564,-2.084226 -0.6622799,-3.494864 -0.673705,-3.002907 -1.5862374,-5.638329 -2.6852131,-7.847469 -0.7421857,-1.204501 -1.273209,-1.911205 -2.1740404,-1.306703 0,0 -1.9814279,3.592343 -1.9814279,3.592343 v 0 c 0.1340401,-0.132647 0.3811937,-0.398624 0.5251625,-0.45126 0.5672222,-0.207364 1.075405,0.539801 1.5291058,1.216555 1.1008692,2.094236 1.9997586,4.664502 2.6587861,7.603392 0.2760275,1.336594 0.4374577,2.008164 0.6385411,3.412982 0.3017207,2.107852 0.4140916,4.314008 0.3902674,6.528835 -0.04094,2.661455 -0.1652394,5.373672 0.057962,8.00566 0.2292253,2.012412 0.5648482,3.939047 0.9467174,5.820605 0,0 2.1911772,-2.900046 2.1911772,-2.900046 z" />
      </g>
      <text
         xml:space="preserve"
         style="font-style:normal;font-weight:normal;font-size:5.64444px;line-height:1.25;font-family:sans-serif;text-align:start;text-anchor:start;white-space:pre;inline-size:63.0609;fill:#000000;fill-opacity:1;stroke:none;stroke-width:0.264583"
         x="67.125946"
         y="61.276352"
         id="text56206"
         transform="translate(-5.1162643,-5.6415626)"><tspan
           x="67.125946"
           y="61.276352"><tspan
             style="font-size:5.64444px;text-align:start;text-anchor:start">Experimental design</tspan></tspan></text>
      <text
         xml:space="preserve"
         style="font-style:normal;font-weight:normal;font-size:5.64444px;line-height:1.25;font-family:sans-serif;text-align:start;text-anchor:start;white-space:pre;inline-size:60.5121;fill:#000000;fill-opacity:1;stroke:none;stroke-width:0.264583"
         x="59.024742"
         y="80.247292"
         id="text56208"
         transform="translate(3.2664582,-12.54018)"><tspan
           x="59.024742"
           y="80.247292"><tspan>Assessment of the </tspan></tspan><tspan
           x="59.024742"
           y="87.302845"><tspan>new ADA for data </tspan></tspan><tspan
           x="59.024742"
           y="94.358394"><tspan>transmission.</tspan></tspan></text>
      <text
         xml:space="preserve"
         style="font-style:normal;font-weight:normal;font-size:5.64444px;line-height:1.25;font-family:sans-serif;text-align:start;text-anchor:start;white-space:pre;inline-size:57.4762;fill:#000000;fill-opacity:1;stroke:none;stroke-width:0.264583"
         x="57.915955"
         y="100.06767"
         id="text56210"
         transform="translate(4.6662824,-9.814197)"><tspan
           x="57.915955"
           y="100.06767"><tspan>Assessment the </tspan></tspan><tspan
           x="57.915955"
           y="107.12323"><tspan>new ADA using </tspan></tspan><tspan
           x="57.915955"
           y="114.17878"><tspan>deep learning</tspan></tspan></text>
      <g
         id="g56216"
         transform="matrix(-1,0,0,1,52.203217,-8.6794645)">
        <path
           style="fill:#1c4a8b;fill-opacity:1;stroke:#1c4a8b;stroke-width:0.362896"
           id="path56212"
           d="m -73.192121,83.082047 c 0.415694,1.796117 0.732526,3.703775 0.947904,5.679106 0.195664,2.576889 0.08386,5.2311 0.04505,7.833496 -0.01856,2.27119 0.124249,4.516911 0.441793,6.667431 0.218741,1.48141 0.367665,2.08422 0.66228,3.49486 0.673705,3.00291 1.586237,5.63833 2.685213,7.84747 0.742186,1.2045 1.273209,1.91121 2.17404,1.3067 0,0 1.981428,-3.59234 1.981428,-3.59234 v 0 c -0.13404,0.13265 -0.381193,0.39862 -0.525162,0.45126 -0.567222,0.20736 -1.075405,-0.5398 -1.529106,-1.21656 -1.100869,-2.09423 -1.999759,-4.6645 -2.658786,-7.60339 -0.276027,-1.33659 -0.437458,-2.00816 -0.638541,-3.41298 -0.301721,-2.107846 -0.414092,-4.314002 -0.390268,-6.528831 0.04094,-2.661453 0.16524,-5.373672 -0.05796,-8.005659 -0.229225,-2.012411 -0.564848,-3.939046 -0.946717,-5.820604 0,0 -2.191177,2.900043 -2.191177,2.900043 z" />
        <path
           style="fill:#1c4a8b;fill-opacity:1;stroke:#1c4a8b;stroke-width:0.362896"
           id="path56214"
           d="m -73.208726,83.071465 c 0.415694,-1.796114 0.732527,-3.703773 0.947905,-5.679104 0.195664,-2.576888 0.08386,-5.231099 0.04505,-7.833496 -0.01856,-2.271191 0.124249,-4.516913 0.441793,-6.667432 0.218741,-1.481418 0.367665,-2.084226 0.662279,-3.494864 0.673705,-3.002907 1.586238,-5.638329 2.685214,-7.847469 0.742185,-1.204501 1.273209,-1.911205 2.17404,-1.306703 0,0 1.981428,3.592343 1.981428,3.592343 v 0 c -0.13404,-0.132647 -0.381194,-0.398624 -0.525162,-0.45126 -0.567223,-0.207364 -1.075405,0.539801 -1.529106,1.216555 -1.10087,2.094236 -1.999759,4.664502 -2.658786,7.603392 -0.276028,1.336594 -0.437458,2.008164 -0.638542,3.412982 -0.30172,2.107852 -0.414091,4.314008 -0.390267,6.528835 0.04094,2.661455 0.165239,5.373672 -0.05796,8.00566 -0.229225,2.012412 -0.564848,3.939047 -0.946717,5.820605 0,0 -2.191178,-2.900046 -2.191178,-2.900046 z" />
      </g>
      <text
         xml:space="preserve"
         style="font-style:normal;font-weight:normal;font-size:10.5833px;line-height:1.25;font-family:sans-serif;fill:#000000;fill-opacity:1;stroke:none;stroke-width:0.264583"
         x="80.209763"
         y="69.327911"
         id="text56707"><tspan
           sodipodi:role="line"
           id="tspan56705"
           x="80.209763"
           y="69.327911"
           style="stroke-width:0.264583" /></text>
    </g>
    <g
       id="g56228"
       class="fragment fade-in"
       data-fragment-index="3">
      <text
         xml:space="preserve"
         style="font-style:normal;font-weight:normal;font-size:5.64444px;line-height:1.25;font-family:sans-serif;text-align:start;text-anchor:start;white-space:pre;inline-size:43.9012;fill:#000000;fill-opacity:1;stroke:none;stroke-width:0.264583"
         x="90.283577"
         y="60.714725"
         id="text56222"
         transform="translate(37.414111,-9.5369397)"><tspan
           x="90.283577"
           y="60.714725"><tspan
             style="font-size:5.64444px;text-align:start;text-anchor:start;stroke-width:0.264583">D.4.1 Journal </tspan></tspan><tspan
           x="90.283577"
           y="67.770275"><tspan
             style="font-size:5.64444px;text-align:start;text-anchor:start;stroke-width:0.264583">paper with </tspan></tspan><tspan
           x="90.283577"
           y="74.825824"><tspan
             style="font-size:5.64444px;text-align:start;text-anchor:start;stroke-width:0.264583">ADA on </tspan></tspan><tspan
           x="90.283577"
           y="81.881374"><tspan
             style="font-size:5.64444px;text-align:start;text-anchor:start;stroke-width:0.264583">streams results</tspan></tspan></text>
      <text
         xml:space="preserve"
         style="font-style:normal;font-weight:normal;font-size:5.64444px;line-height:1.25;font-family:sans-serif;text-align:start;text-anchor:start;white-space:pre;inline-size:45.2426;fill:#000000;fill-opacity:1;stroke:none;stroke-width:0.264583"
         x="91.681999"
         y="98.656609"
         id="text56226"
         transform="translate(35.822748,-13.217867)"><tspan
           x="91.681999"
           y="98.656609"><tspan
             style="font-size:5.64444px;text-align:start;text-anchor:start;stroke-width:0.264583">D.4.2 Journal </tspan></tspan><tspan
           x="91.681999"
           y="105.71216"><tspan
             style="font-size:5.64444px;text-align:start;text-anchor:start;stroke-width:0.264583">paper with ADA </tspan></tspan><tspan
           x="91.681999"
           y="112.76771"><tspan
             style="font-size:5.64444px;text-align:start;text-anchor:start;stroke-width:0.264583">results with </tspan></tspan><tspan
           x="91.681999"
           y="119.82326"><tspan
             style="font-size:5.64444px;text-align:start;text-anchor:start;stroke-width:0.264583">deep learning</tspan></tspan></text>
    </g>
    <g
       id="g56248"
       class="fragment fade-in"
       data-fragment-index="1">
      <g
         id="g56234"
         transform="translate(53.556941,-9.1583044)">
        <path
           style="fill:#1c4a8b;fill-opacity:1;stroke:#1c4a8b;stroke-width:0.264999"
           id="path56230"
           d="m -39.815052,82.602825 c 0.462802,0.860268 0.815539,1.773962 1.055325,2.720067 0.217837,1.234228 0.09336,2.50549 0.05016,3.751934 -0.02066,1.087811 0.138329,2.163424 0.491858,3.193439 0.24353,0.709539 0.409331,0.99826 0.737332,1.6739 0.750052,1.438275 1.765996,2.700538 2.989512,3.758628 0.826293,0.576908 1.417494,0.915393 2.420411,0.625859 0,0 2.205971,-1.720591 2.205971,-1.720591 v 0 c -0.14923,0.06353 -0.424392,0.190926 -0.584676,0.216136 -0.631502,0.09932 -1.197274,-0.258543 -1.70239,-0.582681 -1.225624,-1.003057 -2.226379,-2.234113 -2.96009,-3.641725 -0.307308,-0.640176 -0.487032,-0.961832 -0.710903,-1.634684 -0.335913,-1.009578 -0.461018,-2.066239 -0.434494,-3.127054 0.04558,-1.274731 0.183965,-2.573777 -0.06453,-3.834395 -0.255202,-0.963866 -0.628859,-1.886648 -1.054003,-2.78784 0,0 -2.43949,1.389007 -2.43949,1.389007 z" />
        <path
           style="fill:#1c4a8b;fill-opacity:1;stroke:#1c4a8b;stroke-width:0.264999"
           id="path56232"
           d="m -39.833538,82.597756 c 0.462802,-0.860268 0.815539,-1.773962 1.055325,-2.720067 0.217837,-1.234228 0.09336,-2.50549 0.05016,-3.751934 -0.02066,-1.087811 0.138329,-2.163424 0.491858,-3.193439 0.24353,-0.709539 0.409331,-0.99826 0.737332,-1.6739 0.750052,-1.438275 1.765996,-2.700538 2.989512,-3.758628 0.826293,-0.576908 1.417494,-0.915393 2.420411,-0.625859 0,0 2.205971,1.720591 2.205971,1.720591 v 0 c -0.14923,-0.06353 -0.424392,-0.190926 -0.584676,-0.216136 -0.631502,-0.09932 -1.197274,0.258543 -1.70239,0.582681 -1.225624,1.003057 -2.226379,2.234113 -2.96009,3.641725 -0.307308,0.640176 -0.487032,0.961832 -0.710903,1.634684 -0.335913,1.009578 -0.461018,2.066239 -0.434494,3.127054 0.04558,1.274731 0.183965,2.573777 -0.06453,3.834395 -0.255202,0.963866 -0.628859,1.886648 -1.054003,2.78784 0,0 -2.43949,-1.389007 -2.43949,-1.389007 z" />
      </g>
      <text
         xml:space="preserve"
         style="font-style:normal;font-weight:normal;font-size:5.64444px;line-height:1.25;font-family:sans-serif;text-align:start;text-anchor:start;white-space:pre;inline-size:34.874;fill:#000000;fill-opacity:1;stroke:none;stroke-width:0.264583"
         x="-13.514608"
         y="70.661652"
         id="text56236"
         transform="translate(32.598051,1.2206782)"><tspan
           x="-13.514608"
           y="70.661652"><tspan>Systematic </tspan></tspan><tspan
           x="-13.514608"
           y="77.717205"><tspan>evaluation</tspan></tspan></text>
      <g
         id="g56242"
         transform="translate(55.921192,-7.8408014)">
        <path
           style="fill:#1c4a8b;fill-opacity:1;stroke:#1c4a8b;stroke-width:0.264999"
           id="path56238"
           d="m 0.83643945,82.237865 c -0.462802,0.860269 -0.815539,1.773962 -1.055325,2.720067 -0.217837,1.234228 -0.09336,2.50549 -0.05016,3.751935 0.02066,1.087811 -0.138329,2.163424 -0.491858,3.193439 -0.24352995,0.709539 -0.40933095,0.99826 -0.73733195,1.6739 -0.750052,1.438275 -1.765996,2.700537 -2.989512,3.758628 -0.826293,0.576908 -1.417494,0.915393 -2.420411,0.625859 0,0 -2.205971,-1.720591 -2.205971,-1.720591 v 0 c 0.14923,0.06353 0.424392,0.190926 0.584676,0.216136 0.631502,0.09932 1.197274,-0.258543 1.70239,-0.582681 1.225624,-1.003057 2.226379,-2.234113 2.96009,-3.641725 0.307308,-0.640176 0.487032,-0.961832 0.710903,-1.634684 0.335913,-1.009578 0.461018,-2.066239 0.434494,-3.127054 -0.04558,-1.274731 -0.183965,-2.573777 0.06453,-3.834395 0.255202,-0.963866 0.628859,-1.886648 1.054003,-2.78784 0,0 2.43948995,1.389007 2.43948995,1.389007 z" />
        <path
           style="fill:#1c4a8b;fill-opacity:1;stroke:#1c4a8b;stroke-width:0.264999"
           id="path56240"
           d="m 0.85492545,82.232797 c -0.462802,-0.860268 -0.815539,-1.773962 -1.055325,-2.720067 -0.217837,-1.234228 -0.09336,-2.50549 -0.05016,-3.751935 0.02066,-1.087811 -0.138329,-2.163424 -0.491858,-3.193438 -0.24353,-0.70954 -0.40933095,-0.998261 -0.73733195,-1.673901 -0.750052,-1.438275 -1.765996,-2.700537 -2.989512,-3.758628 -0.826293,-0.576908 -1.417494,-0.915392 -2.420411,-0.625859 0,0 -2.205971,1.720591 -2.205971,1.720591 v 0 c 0.14923,-0.06353 0.424392,-0.190926 0.584676,-0.216136 0.631502,-0.09932 1.197274,0.258543 1.70239,0.582681 1.225624,1.003057 2.226379,2.234113 2.96009,3.641725 0.307308,0.640176 0.487032,0.961832 0.710903,1.634684 0.335913,1.009578 0.461018,2.066239 0.434494,3.127054 -0.04558,1.274731 -0.183965,2.573777 0.06453,3.834395 0.255202,0.963866 0.628859,1.886648 1.054003,2.78784 0,0 2.43948995,-1.389007 2.43948995,-1.389007 z" />
      </g>
      <path
         style="fill:#1c4a8b;fill-opacity:1;stroke:#1c4a8b;stroke-width:0.264999"
         id="path56633"
         d="m 152.86238,25.857336 c 0.0175,0.789301 0.0106,1.578926 0.008,2.368353 -0.003,0.624924 -0.004,1.249852 -0.005,1.874782 -5.3e-4,0.566518 -5.3e-4,1.133033 -5.3e-4,1.699551 0.002,0.322715 -0.0445,0.668321 -0.14315,0.97827 -0.0426,0.133858 -0.11541,0.25618 -0.16996,0.38563 -0.0395,0.05118 -0.0818,0.100391 -0.11863,0.153533 -0.11253,0.162232 -0.0882,0.188899 -0.24672,0.309099 -0.052,0.03943 -0.22559,0.131342 -0.1694,0.09816 2.262,-1.335754 2.99773,-1.644039 2.01015,-1.216948 -0.72381,0.29978 -1.49654,0.347456 -2.26888,0.394761 -1.31415,0.04637 -2.64765,0.02302 -3.93865,-0.24561 -0.99748,-0.21371 -1.94658,-0.595395 -2.87991,-0.9988 -0.68878,-0.291288 -1.38321,-0.568058 -2.07002,-0.864216 -0.73276,-0.315953 -1.49694,-0.528281 -2.27647,-0.690737 -1.02531,-0.184219 -2.0676,-0.234353 -3.1069,-0.263023 -0.85249,-0.02005 -1.70527,-0.01659 -2.55791,-0.01328 -1.04511,0.02928 -2.07034,0.241761 -3.08765,0.465606 -0.95269,0.233167 -1.89429,0.507304 -2.83862,0.771541 -0.86675,0.240146 -1.74068,0.456874 -2.61581,0.664697 -1.10066,0.278085 -2.21419,0.506952 -3.33328,0.697272 -0.97395,0.154305 -1.95929,0.203832 -2.94368,0.228121 -0.71491,0.0019 -1.39422,-0.20814 -2.05385,-0.463187 -0.75522,-0.341458 -1.47169,-0.758196 -2.21624,-1.121231 -0.84133,-0.388437 -1.71604,-0.703712 -2.61194,-0.939117 -1.10276,-0.2897 -2.22989,-0.480012 -3.35866,-0.634664 -1.42671,-0.169063 -2.86456,-0.192572 -4.29937,-0.215463 -1.19135,-0.01463 -2.3828,-0.01643 -3.57422,-0.01537 -1.042,-0.02574 -2.07702,0.0011 -3.109395,0.14745 -1.154504,0.168029 -2.282053,0.462357 -3.396486,0.800907 -1.195263,0.369472 -2.373267,0.788866 -3.54621,1.223108 -1.08739,0.370956 -2.15828,0.775726 -3.271967,1.061926 -1.583002,0.418148 -3.210994,0.578414 -4.839999,0.675362 -1.774187,0.134271 -3.549811,0.242589 -5.328065,0.302787 -1.676726,0.07558 -3.355436,-5.29e-4 -5.026607,-0.140676 -1.156637,-0.115496 -2.315173,-0.281334 -3.431988,-0.609942 -0.650171,-0.215405 -1.22968,-0.583512 -1.796904,-0.958397 -0.375311,-0.308227 -0.784058,-0.570921 -1.189479,-0.837256 -0.507058,-0.313518 -1.076479,-0.505602 -1.631905,-0.714047 -0.826794,-0.309342 -1.693802,-0.469701 -2.558608,-0.629777 -1.23779,-0.215757 -2.496117,-0.260421 -3.749379,-0.298071 -1.168249,-0.01635 -2.337784,-0.0506 -3.505187,0.0058 -1.414219,0.100394 -2.816127,0.336862 -4.211547,0.581284 -1.274403,0.197123 -2.527422,0.514766 -3.744902,0.937739 -1.001223,0.339143 -1.978343,0.743667 -2.976549,1.090888 -1.074063,0.338722 -2.144311,0.698611 -3.237498,0.971275 -1.284176,0.349411 -2.604807,0.4935 -3.928535,0.580739 -1.430563,0.09507 -2.860718,0.08304 -4.285076,-0.07817 C 31.91823,33.18289 30.678318,32.702039 29.463695,32.191404 28.350329,31.731473 27.319777,31.103882 26.25522,30.54691 25.526861,30.170411 24.788341,29.800952 24.015471,29.524113 23.084643,29.166349 22.0926,29.100602 21.107594,29.045775 c -1.181919,-0.04995 -2.365006,-0.06102 -3.547814,-0.06751 -0.787763,0.0011 -1.574994,-0.0333 -2.35824,0.06289 -0.58828,0.09709 -1.180182,0.16029 -1.775256,0.193463 -0.484206,0.06323 -0.964581,0.164315 -1.443991,0.259348 -0.488782,0.126288 -0.967597,0.283284 -1.441429,0.456758 -0.07139,0.03158 -0.146256,0.05625 -0.214166,0.09475 -0.8678106,0.491959 -1.7289476,0.995606 -2.5919173,1.49601 -0.062117,0.03602 -0.2454122,0.149177 -0.1832634,0.113213 0.7376996,-0.426884 2.9471807,-1.71377 2.2099865,-1.286016 -2.8594177,1.659171 -1.6968057,1.003266 -2.76,1.602071 -0.2610905,0.172291 -0.3832497,0.471498 -0.6105263,0.67446 -0.6156214,0.549762 0.2471558,-0.293399 -0.3428145,0.294021 -0.2075807,0.183708 -0.4700667,0.340082 -0.6369267,0.56655 -0.3825613,0.519228 0.1510334,-0.116634 -0.243373,0.340235 -0.2055043,0.246049 -0.2297769,0.556006 -0.3141678,0.848921 -0.040239,0.139668 -0.1040337,0.2715 -0.1514594,0.408892 -0.103963,0.499669 -0.2284259,0.99318 -0.3359812,1.492661 -0.2081003,0.546441 -0.3216812,1.115784 -0.3869539,1.694711 -0.090076,0.573826 -0.00169,1.092645 0.2616552,1.60427 0.2192128,0.472495 0.5068744,0.908722 0.6728973,1.404178 0.2125858,0.516657 0.3853439,1.050856 0.6125046,1.560949 0.174625,0.442603 0.349028,0.887171 0.499514,1.33917 0.1341909,0.59782 0.1876457,1.218345 0.1288661,1.828149 C 6.0900995,46.58932 5.9758243,47.165474 5.7130867,47.670434 5.439601,48.081281 5.1373169,48.46987 4.8210549,48.850179 4.3792314,49.248006 3.9216888,49.629128 3.43761,49.97347 c -0.364282,0.284089 -0.6678684,0.636106 -1.0249885,0.925841 -0.3402927,0.354541 -0.3960292,0.839988 -0.4418026,1.307205 -0.045988,0.579411 -0.067012,1.14526 0.103477,1.704523 0.2016705,0.56103 0.4445161,1.107752 0.7025236,1.645245 0.1656231,0.467646 0.4422116,0.868982 0.7440996,1.25611 0.2878836,0.331663 0.6112529,0.628668 0.9140817,0.945837 0.317219,0.289383 0.6070716,0.604415 0.8923896,0.924841 0.3784078,0.3326 0.6738485,0.741063 0.9705393,1.144775 0.2463236,0.415243 0.4228737,0.877798 0.5767284,1.335953 0.1493186,0.556244 0.1552297,1.138602 0.1686935,1.710835 0.012039,0.521417 -0.1460838,1.027314 -0.212594,1.543336 -0.1296498,0.281596 -0.1585976,0.59531 -0.2471285,0.887674 -0.041488,0.137012 -0.1095708,0.26456 -0.1604536,0.398365 -0.1438638,0.487206 -0.2641262,0.983488 -0.437596,1.461569 -0.1863817,0.540411 -0.4032464,1.067409 -0.6379443,1.587915 -0.1642348,0.435608 -0.2768774,0.903571 -0.5067556,1.310614 -0.1210678,0.256291 -0.2111812,0.525386 -0.3676663,0.764082 -0.035383,0.05397 -0.083617,0.09832 -0.125426,0.147487 -0.03739,0.0573 -0.07478,0.114609 -0.1121696,0.171913 -0.030708,0.06576 -0.055102,0.13485 -0.092125,0.197271 -0.2068174,0.348694 -0.036537,-0.04262 -0.222428,0.339523 -0.098334,0.202153 -0.1401469,0.413311 -0.2427367,0.614022 -0.028063,0.06662 -0.056126,0.133246 -0.084189,0.199871 0,0 2.5503515,-1.171469 2.5503515,-1.171469 v 0 c 0.028729,-0.06531 0.057459,-0.130622 0.086188,-0.195935 C 6.3851437,70.739155 6.5712294,70.372461 6.8086898,70.022986 7.0509754,69.673332 7.2268304,69.292422 7.3961743,68.90328 7.5738261,68.469001 7.7274583,68.026308 7.8945308,67.588325 8.1292162,67.06269 8.3259299,66.519861 8.5185342,65.977764 8.6725719,65.493238 8.8082503,65.00287 8.967069,64.520047 9.1258389,64.084435 9.2321686,63.63019 9.3442717,63.181012 9.4238507,62.655857 9.5693795,62.135011 9.529466,61.599233 9.5104769,60.999777 9.4978023,60.388904 9.3291175,59.809162 9.1600871,59.326621 8.9730748,58.839377 8.709489,58.401219 8.4116467,57.988877 8.1109509,57.570896 7.7252543,57.235359 7.4432236,56.907993 7.16076,56.582381 6.8338826,56.299157 6.5425539,55.981988 6.2169224,55.69849 5.9292172,55.377238 5.6396553,55.005083 5.3728511,54.623152 5.2119347,54.173667 4.9567734,53.652819 4.71626,53.122051 4.5293086,52.572687 4.3897359,52.045525 4.4321666,51.504032 4.482258,50.964956 4.5465296,50.528121 4.6498655,50.127005 5.0128177,49.8402 5.3394101,49.523512 5.6808028,49.222305 6.037486,48.939772 6.5095712,48.568035 6.9982833,48.207871 7.3953517,47.753058 7.7118392,47.356738 8.0354833,46.959533 8.2617902,46.502576 8.4690846,45.947017 8.6142625,45.374025 8.6487999,44.779567 8.6806266,44.131735 8.6406772,43.476412 8.4819849,42.845354 8.3237783,42.387231 8.1505268,41.933262 7.9653462,41.485878 7.7401326,40.983654 7.5699172,40.456707 7.3668183,39.945042 7.1873337,39.4409 6.8986394,38.993251 6.6731035,38.509421 6.442434,38.041799 6.4006436,37.567666 6.4872737,37.052226 c 0.078099,-0.570863 0.2237597,-1.122421 0.3999865,-1.670693 0.1153131,-0.490157 0.2139693,-0.984946 0.355723,-1.467699 0.1396185,-0.404993 0.2106142,-0.840897 0.5076907,-1.169842 0.2539085,-0.3355 0.5737005,-0.598316 0.8922279,-0.871181 0.3330096,-0.29918 0.5899449,-0.678627 0.9782111,-0.911555 0.059256,-0.03716 0.2386121,-0.14599 0.177767,-0.111491 -0.7440068,0.42186 -2.9711967,1.695921 -2.2274165,1.273662 0.8669015,-0.492157 1.7325999,-0.986443 2.5967826,-1.483357 0.06219,-0.03576 0.244696,-0.149754 0.182176,-0.114578 -0.7421046,0.417555 -1.4847955,0.834186 -2.2211352,1.261827 -0.067653,0.03929 0.1427224,-0.06414 0.2140837,-0.0962 0.4425963,-0.230923 0.9408974,-0.341601 1.4147117,-0.488707 0.4531198,-0.160869 0.9553358,-0.150818 1.4128998,-0.312722 0.601854,-0.024 1.202797,-0.06969 1.796341,-0.177154 0.138677,-0.02196 0.549111,-0.09005 0.685301,-0.09889 0.552919,-0.0359 1.111722,0.0222 1.665095,-0.0068 1.185562,-0.0037 2.371635,-0.0055 3.556444,0.04305 0.955396,0.05142 1.926913,0.096 2.83124,0.440531 0.776427,0.244528 1.512825,0.611412 2.240372,0.972606 1.080834,0.543486 2.110796,1.190625 3.232685,1.652746 1.230424,0.52479 2.484374,1.025647 3.810122,1.249434 1.43197,0.181282 2.8722,0.198855 4.313184,0.119406 1.328269,-0.0782 2.659428,-0.193296 3.949642,-0.538662 1.100701,-0.242713 2.165765,-0.61971 3.244212,-0.943915 1.007901,-0.326683 1.978959,-0.754001 2.984495,-1.088353 1.20632,-0.458967 2.464824,-0.784434 3.738417,-0.992076 1.381694,-0.254384 2.774095,-0.474461 4.174175,-0.594669 1.162428,-0.07736 2.328786,-0.02916 3.493122,-0.02556 1.242327,0.02791 2.489538,0.0635 3.717927,0.267689 0.847495,0.155229 1.694564,0.318114 2.508584,0.606322 0.5384,0.195517 1.079997,0.393483 1.584153,0.66629 0.403061,0.275153 0.827124,0.517861 1.199335,0.8354 0.59332,0.379881 1.183859,0.776587 1.850003,1.02107 1.144837,0.332377 2.330466,0.503261 3.51581,0.617783 1.673416,0.150257 3.356663,0.242605 5.03682,0.174096 1.783318,-0.06346 3.563768,-0.175638 5.343308,-0.307565 1.629574,-0.07804 3.258428,-0.219567 4.846394,-0.616275 0.523711,-0.122624 0.74131,-0.163372 1.248138,-0.320667 0.68504,-0.212598 1.337048,-0.523298 2.03233,-0.706999 1.172028,-0.443219 2.350225,-0.868762 3.54575,-1.244949 1.104776,-0.33443 2.215023,-0.652722 3.359727,-0.821457 1.022027,-0.1735 2.049505,-0.210968 3.085304,-0.182232 1.196678,-0.0021 2.393368,-0.0097 3.590038,-0.0011 1.42573,0.0154 2.85435,0.03606 4.27292,0.193842 1.11708,0.14696 2.2324,0.338463 3.32356,0.621098 0.88549,0.212776 1.74193,0.526905 2.57452,0.895017 0.74905,0.36535 1.47275,0.776356 2.22287,1.139629 0.67779,0.287743 1.37774,0.521489 2.11974,0.556355 0.99739,-0.02487 1.99566,-0.06979 2.98448,-0.210999 1.1213,-0.176202 2.23643,-0.403863 3.33751,-0.678757 0.87761,-0.192977 1.74879,-0.419352 2.61786,-0.645703 0.93944,-0.285062 1.89092,-0.530957 2.83724,-0.792734 1.00349,-0.227846 2.01101,-0.450686 3.04192,-0.506878 0.85275,2.9e-5 1.70554,-0.005 2.55826,0.0043 1.02995,0.02027 2.0634,0.05243 3.08178,0.221345 0.76392,0.148561 1.50495,0.361913 2.22491,0.658077 0.69373,0.288089 1.3851,0.580128 2.08634,0.849998 0.94471,0.413742 1.90695,0.810617 2.91532,1.039979 1.30337,0.298611 2.65727,0.309811 3.98912,0.298582 0.76379,-0.02511 1.55228,-0.01429 2.27253,-0.305062 1.30623,-0.295685 2.6941,-1.013756 3.28892,-2.240063 0.17956,-0.464465 0.27765,-0.956992 0.25851,-1.456885 0,-0.566378 4e-5,-1.132756 -5.3e-4,-1.699133 -5.3e-4,-0.623361 -0.002,-1.246725 -0.005,-1.870083 -0.003,-0.792032 -0.01,-1.584252 0.008,-2.376159 0,0 -2.49811,1.27285 -2.49811,1.27285 z" />
      <path
         style="display:inline;fill:#1c4a8b;fill-opacity:1;stroke:#1c4a8b;stroke-width:0.264999"
         id="path56244"
         d="m 3.5891166,72.897309 c 0.36081,0.16959 0.87412,0.4236 1.242,0.53259 1.79441,0.53162 3.69108,0.55533 5.5448304,0.57024 1.05112,0.0186 2.09492,-0.089 3.1363,-0.21274 0,0 2.18954,-1.63517 2.18954,-1.63517 v 0 c -1.05246,0.1528 -2.10749,0.29667 -3.17458,0.28559 -1.81177,0.007 -3.6652104,10e-5 -5.4170304,-0.53371 -0.46619,-0.14206 -0.7675,-0.32352 -1.18363,-0.54474 0,0 -2.33743,1.53794 -2.33743,1.53794 z" />
    </g>
    <g
       id="g56701"
       class="fragment semi-fade-out"
       data-fragment-index="1">
      <g
         id="g56631">
        <g
           id="g56290"
           transform="translate(-1.2789376e-4,-8.2294121e-5)">
          <path
             id="path56250"
             class="st2"
             d="m 125.02924,24.540433 h -23.01988 c -2.072729,0 -3.768599,-2.063226 -3.768599,-4.584948 v -8.214699 c 0,-2.5217227 1.69587,-4.5849487 3.768599,-4.5849487 h 23.01988 c 2.07273,0 3.7686,2.063226 3.7686,4.5849487 v 8.214699 c 0,2.521722 -1.69587,4.584948 -3.7686,4.584948 z"
             style="fill:#1c4a8b;stroke:#221f1f;stroke-width:0.346397;stroke-miterlimit:10" />
          <g
             id="g56270"
             transform="matrix(0.3188012,0,0,0.29923781,36.382105,-17.801992)">
            <linearGradient
               id="linearGradient56266"
               gradientUnits="userSpaceOnUse"
               x1="-7854.5342"
               y1="-8001.5151"
               x2="-7819.292"
               y2="-8001.5151"
               gradientTransform="matrix(-1,0.0050054,-0.0050054,-1,-7573.2466,-7851.8403)">
              <stop
                 offset="5.618000e-003"
                 style="stop-color:#FEDC00"
                 id="stop56252" />
              <stop
                 offset="5.735702e-002"
                 style="stop-color:#F8D10F"
                 id="stop56254" />
              <stop
                 offset="0.1534"
                 style="stop-color:#EBB422"
                 id="stop56256" />
              <stop
                 offset="0.2833"
                 style="stop-color:#D9892B"
                 id="stop56258" />
              <stop
                 offset="0.4402"
                 style="stop-color:#C6522F"
                 id="stop56260" />
              <stop
                 offset="0.5225"
                 style="stop-color:#BD2A2F"
                 id="stop56262" />
              <stop
                 offset="1"
                 style="stop-color:#EB6537"
                 id="stop56264" />
            </linearGradient>
            <path
               id="path56268"
               class="st12"
               d="m 287.2,104.3 c 7,-3 15,0 21,4 0,-2 0,-4 0,-6 4,4 8,8 13,9 -5,5 -11,6 -17,7 1,-2 2,-3 3,-4 -7,-2 -14,-4 -21,1 0,-4 -1,-7 1,-11 z"
               style="fill:url(#linearGradient55824)" />
          </g>
          <text
             xml:space="preserve"
             style="font-style:normal;font-variant:normal;font-weight:normal;font-stretch:normal;font-size:4.23333px;line-height:1.25;font-family:'San Francisco Display';-inkscape-font-specification:'San Francisco Display';text-align:start;text-anchor:start;white-space:pre;inline-size:26.3173;fill:#ffffff;fill-opacity:1;stroke:none;stroke-width:0.264583"
             x="29.964773"
             y="21.246508"
             id="text56284"
             transform="translate(73.344726,-9.5730756)"><tspan
               x="29.964773"
               y="21.246508"><tspan
                 style="font-style:normal;font-variant:normal;font-weight:normal;font-stretch:normal;font-family:'San Francisco Display';-inkscape-font-specification:'San Francisco Display';text-align:start;text-anchor:start">Anomaly </tspan></tspan><tspan
               x="29.964773"
               y="26.538171"><tspan
                 style="font-style:normal;font-variant:normal;font-weight:normal;font-stretch:normal;font-family:'San Francisco Display';-inkscape-font-specification:'San Francisco Display';text-align:start;text-anchor:start">Detection </tspan></tspan><tspan
               x="29.964773"
               y="31.829833"><tspan
                 style="font-style:normal;font-variant:normal;font-weight:normal;font-stretch:normal;font-family:'San Francisco Display';-inkscape-font-specification:'San Francisco Display';text-align:start;text-anchor:start">Algorithm</tspan></tspan></text>
          <text
             xml:space="preserve"
             style="font-style:normal;font-variant:normal;font-weight:normal;font-stretch:normal;font-size:7.05556px;line-height:1.25;font-family:'San Francisco Display';-inkscape-font-specification:'San Francisco Display';text-align:start;text-anchor:start;fill:#000000;fill-opacity:1;stroke:none;stroke-width:0.264583"
             x="106.90117"
             y="5.4571562"
             id="text56288"><tspan
               sodipodi:role="line"
               id="tspan56286"
               x="106.90117"
               y="5.4571562"
               style="font-style:normal;font-variant:normal;font-weight:normal;font-stretch:normal;font-size:7.05556px;font-family:'San Francisco Display';-inkscape-font-specification:'San Francisco Display';text-align:start;text-anchor:start;stroke-width:0.264583">WP3</tspan></text>
        </g>
        <g
           id="g56332"
           transform="translate(10.299595,-2.6532447)">
          <path
             id="path56292"
             class="st2"
             d="M 74.279792,26.967763 H 49.8349 c -2.20104,0 -4.001892,-2.061986 -4.001892,-4.582192 v -8.209759 c 0,-2.520207 1.800852,-4.5821916 4.001892,-4.5821916 h 24.444892 c 2.201039,0 4.00189,2.0619846 4.00189,4.5821916 v 8.209759 c 0,2.520206 -1.800851,4.582192 -4.00189,4.582192 z"
             style="fill:#1c4a8b;stroke:#221f1f;stroke-width:0.356851;stroke-miterlimit:10" />
          <g
             id="g56312"
             transform="matrix(0.3188012,0,0,0.29923781,-14.729468,-15.369436)">
            <linearGradient
               id="linearGradient56308"
               gradientUnits="userSpaceOnUse"
               x1="-7854.5342"
               y1="-8001.5151"
               x2="-7819.292"
               y2="-8001.5151"
               gradientTransform="matrix(-1,0.0050054,-0.0050054,-1,-7573.2466,-7851.8403)">
              <stop
                 offset="5.618000e-003"
                 style="stop-color:#FEDC00"
                 id="stop56294" />
              <stop
                 offset="5.735702e-002"
                 style="stop-color:#F8D10F"
                 id="stop56296" />
              <stop
                 offset="0.1534"
                 style="stop-color:#EBB422"
                 id="stop56298" />
              <stop
                 offset="0.2833"
                 style="stop-color:#D9892B"
                 id="stop56300" />
              <stop
                 offset="0.4402"
                 style="stop-color:#C6522F"
                 id="stop56302" />
              <stop
                 offset="0.5225"
                 style="stop-color:#BD2A2F"
                 id="stop56304" />
              <stop
                 offset="1"
                 style="stop-color:#EB6537"
                 id="stop56306" />
            </linearGradient>
            <path
               id="path56310"
               class="st12"
               d="m 287.2,104.3 c 7,-3 15,0 21,4 0,-2 0,-4 0,-6 4,4 8,8 13,9 -5,5 -11,6 -17,7 1,-2 2,-3 3,-4 -7,-2 -14,-4 -21,1 0,-4 -1,-7 1,-11 z"
               style="fill:url(#linearGradient56406)" />
          </g>
          <text
             xml:space="preserve"
             style="font-style:normal;font-variant:normal;font-weight:normal;font-stretch:normal;font-size:4.23333px;line-height:1.25;font-family:'San Francisco Display';-inkscape-font-specification:'San Francisco Display';text-align:start;text-anchor:start;white-space:pre;inline-size:32.524;fill:#ffffff;fill-opacity:1;stroke:none;stroke-width:0.264583"
             x="61.016087"
             y="21.246508"
             id="text56326"
             transform="translate(-12.705046,-7.2406229)"
             inkscape:transform-center-x="-0.10011188"
             inkscape:transform-center-y="0.40043122"><tspan
               x="61.016087"
               y="21.246508"><tspan
                 style="font-style:normal;font-variant:normal;font-weight:normal;font-stretch:normal;font-family:'San Francisco Display';-inkscape-font-specification:'San Francisco Display';text-align:start;text-anchor:start">Evaluation of </tspan></tspan><tspan
               x="61.016087"
               y="26.538171"><tspan
                 style="font-style:normal;font-variant:normal;font-weight:normal;font-stretch:normal;font-family:'San Francisco Display';-inkscape-font-specification:'San Francisco Display';text-align:start;text-anchor:start">Efficient </tspan></tspan><tspan
               x="61.016087"
               y="31.829833"><tspan
                 style="font-style:normal;font-variant:normal;font-weight:normal;font-stretch:normal;font-family:'San Francisco Display';-inkscape-font-specification:'San Francisco Display';text-align:start;text-anchor:start">Approximation</tspan></tspan></text>
          <text
             xml:space="preserve"
             style="font-style:normal;font-variant:normal;font-weight:normal;font-stretch:normal;font-size:7.05556px;line-height:1.25;font-family:'San Francisco Display';-inkscape-font-specification:'San Francisco Display';text-align:start;text-anchor:start;fill:#000000;fill-opacity:1;stroke:none;stroke-width:0.264583"
             x="55.49099"
             y="7.8897109"
             id="text56330"><tspan
               sodipodi:role="line"
               id="tspan56328"
               x="55.49099"
               y="7.8897109"
               style="font-style:normal;font-variant:normal;font-weight:normal;font-stretch:normal;font-size:7.05556px;font-family:'San Francisco Display';-inkscape-font-specification:'San Francisco Display';text-align:start;text-anchor:start;stroke-width:0.264583">WP2</tspan></text>
        </g>
        <g
           id="g56376"
           transform="translate(10.299596,-2.4319087)"
           style="display:inline">
          <g
             id="g56352"
             transform="matrix(0.3188012,0,0,0.29923781,-55.836053,-15.590772)">
            <linearGradient
               id="linearGradient56348"
               gradientUnits="userSpaceOnUse"
               x1="-7854.5342"
               y1="-8001.5151"
               x2="-7819.292"
               y2="-8001.5151"
               gradientTransform="matrix(-1,0.0050054,-0.0050054,-1,-7573.2466,-7851.8403)">
              <stop
                 offset="5.618000e-003"
                 style="stop-color:#FEDC00"
                 id="stop56334" />
              <stop
                 offset="5.735702e-002"
                 style="stop-color:#F8D10F"
                 id="stop56336" />
              <stop
                 offset="0.1534"
                 style="stop-color:#EBB422"
                 id="stop56338" />
              <stop
                 offset="0.2833"
                 style="stop-color:#D9892B"
                 id="stop56340" />
              <stop
                 offset="0.4402"
                 style="stop-color:#C6522F"
                 id="stop56342" />
              <stop
                 offset="0.5225"
                 style="stop-color:#BD2A2F"
                 id="stop56344" />
              <stop
                 offset="1"
                 style="stop-color:#EB6537"
                 id="stop56346" />
            </linearGradient>
            <path
               id="path56350"
               class="st12"
               d="m 287.2,104.3 c 7,-3 15,0 21,4 0,-2 0,-4 0,-6 4,4 8,8 13,9 -5,5 -11,6 -17,7 1,-2 2,-3 3,-4 -7,-2 -14,-4 -21,1 0,-4 -1,-7 1,-11 z"
               style="fill:url(#linearGradient56408)" />
          </g>
          <g
             id="g56374">
            <path
               id="path56354"
               class="st2"
               d="M 32.811085,26.751653 H 9.7912042 c -2.0727312,0 -3.7686018,-2.063226 -3.7686018,-4.584948 v -8.214699 c 0,-2.521723 1.6958706,-4.5849486 3.7686018,-4.5849486 H 32.811085 c 2.072729,0 3.7686,2.0632256 3.7686,4.5849486 v 8.214699 c 0,2.521722 -1.695871,4.584948 -3.7686,4.584948 z"
               style="fill:#1c4a8b;stroke:#221f1f;stroke-width:0.346397;stroke-miterlimit:10" />
            <text
               xml:space="preserve"
               style="font-style:normal;font-variant:normal;font-weight:normal;font-stretch:normal;font-size:4.23333px;line-height:1.25;font-family:'San Francisco Display';-inkscape-font-specification:'San Francisco Display';text-align:start;text-anchor:start;white-space:pre;inline-size:26.3173;fill:#ffffff;fill-opacity:1;stroke:none;stroke-width:0.264583"
               x="19.785557"
               y="21.246508"
               id="text56368"
               transform="translate(-9.1730576,-7.3618557)"><tspan
                 x="19.785557"
                 y="21.246508"><tspan
                   style="font-style:normal;font-variant:normal;font-weight:normal;font-stretch:normal;font-size:4.23333px;font-family:'San Francisco Display';-inkscape-font-specification:'San Francisco Display';text-align:start;text-anchor:start;fill:#ffffff;stroke-width:0.264583">Density </tspan></tspan><tspan
                 x="19.785557"
                 y="26.538171"><tspan
                   style="font-style:normal;font-variant:normal;font-weight:normal;font-stretch:normal;font-size:4.23333px;font-family:'San Francisco Display';-inkscape-font-specification:'San Francisco Display';text-align:start;text-anchor:start;fill:#ffffff;stroke-width:0.264583">Estimation </tspan></tspan><tspan
                 x="19.785557"
                 y="31.829833"><tspan
                   style="font-style:normal;font-variant:normal;font-weight:normal;font-stretch:normal;font-size:4.23333px;font-family:'San Francisco Display';-inkscape-font-specification:'San Francisco Display';text-align:start;text-anchor:start;fill:#ffffff;stroke-width:0.264583">Algorithm</tspan></tspan></text>
            <text
               xml:space="preserve"
               style="font-style:normal;font-variant:normal;font-weight:normal;font-stretch:normal;font-size:7.05556px;line-height:1.25;font-family:'San Francisco Display';-inkscape-font-specification:'San Francisco Display';text-align:start;text-anchor:start;fill:#000000;fill-opacity:1;stroke:none;stroke-width:0.264583"
               x="15.418639"
               y="7.6683755"
               id="text56372"><tspan
                 sodipodi:role="line"
                 id="tspan56370"
                 x="15.418639"
                 y="7.6683755"
                 style="font-style:normal;font-variant:normal;font-weight:normal;font-stretch:normal;font-size:7.05556px;font-family:'San Francisco Display';-inkscape-font-specification:'San Francisco Display';text-align:start;text-anchor:start;stroke-width:0.264583">WP1</tspan></text>
          </g>
        </g>
      </g>
    </g>
    <g
       id="g56394"
       transform="translate(-1.2789376e-4,-8.2294121e-5)">
      <path
         id="path56378"
         class="st2"
         d="m 165.31273,24.457059 h -23.01988 c -2.07273,0 -3.7686,-2.063226 -3.7686,-4.584948 v -8.214699 c 0,-2.5217227 1.69587,-4.5849497 3.7686,-4.5849497 h 23.01988 c 2.07273,0 3.7686,2.063227 3.7686,4.5849497 v 8.214699 c 0,2.521722 -1.69587,4.584948 -3.7686,4.584948 z"
         style="fill:#1c4a8b;stroke:#221f1f;stroke-width:0.346397;stroke-miterlimit:10" />
      <text
         xml:space="preserve"
         style="font-style:normal;font-variant:normal;font-weight:normal;font-stretch:normal;font-size:4.23333px;line-height:1.25;font-family:'San Francisco Display';-inkscape-font-specification:'San Francisco Display';text-align:start;text-anchor:start;white-space:pre;inline-size:26.3173;fill:#ffffff;fill-opacity:1;stroke:none;stroke-width:0.264583"
         x="62.954987"
         y="21.246508"
         id="text56388"
         transform="translate(81.133454,-7.3912632)"><tspan
           x="62.954987"
           y="21.246508"><tspan
             style="font-style:normal;font-variant:normal;font-weight:normal;font-stretch:normal;font-family:'San Francisco Display';-inkscape-font-specification:'San Francisco Display';text-align:start;text-anchor:start">Sistematic </tspan></tspan><tspan
           x="62.954987"
           y="26.538171"><tspan
             style="font-style:normal;font-variant:normal;font-weight:normal;font-stretch:normal;font-family:'San Francisco Display';-inkscape-font-specification:'San Francisco Display';text-align:start;text-anchor:start">Evaluation</tspan></tspan></text>
      <text
         xml:space="preserve"
         style="font-style:normal;font-variant:normal;font-weight:normal;font-stretch:normal;font-size:7.05556px;line-height:1.25;font-family:'San Francisco Display';-inkscape-font-specification:'San Francisco Display';text-align:start;text-anchor:start;fill:#000000;fill-opacity:1;stroke:none;stroke-width:0.264583"
         x="147.19853"
         y="5.3737822"
         id="text56392"><tspan
           sodipodi:role="line"
           id="tspan56390"
           x="147.19853"
           y="5.3737822"
           style="font-style:normal;font-variant:normal;font-weight:normal;font-stretch:normal;font-size:7.05556px;font-family:'San Francisco Display';-inkscape-font-specification:'San Francisco Display';text-align:start;text-anchor:start;stroke-width:0.264583">WP4</tspan></text>
    </g>
  </g>
</svg>
